<?xml version="1.0" encoding="utf-8" ?>
<svg baseProfile="full" height="300mm" version="1.1" viewBox="0,0,200,300" width="200mm" xmlns="http://www.w3.org/2000/svg" xmlns:ev="http://www.w3.org/2001/xml-events" xmlns:xlink="http://www.w3.org/1999/xlink"><defs /><rect fill="#222222" height="300" width="200" x="0" y="0" /><text fill="#FFFFFF" style="font-size:12px; font-family:Arial; font-weight:bold;" x="10" y="20">Over 1km Runs</text><text fill="#FFFFFF" style="font-size:4px; font-family:Arial" x="10" y="280">ATHLETE</text><text fill="#FFFFFF" style="font-size:9px; font-family:Arial" x="10" y="290">Seven</text><text fill="#FFFFFF" style="font-size:4px; font-family:Arial" x="120" y="280">STATISTICS</text><text fill="#FFFFFF" style="font-size:3px; font-family:Arial" x="120" y="285">Number: 3</text><text fill="#FFFFFF" style="font-size:3px; font-family:Arial" x="120" y="290">Weekly: 1.5</text><text fill="#FFFFFF" style="font-size:3px; font-family:Arial" x="141" y="285">Total: 22.7 km</text><text fill="#FFFFFF" style="font-size:3px; font-family:Arial" x="141" y="290">Avg: 7.6 km</text><text fill="#FFFFFF" style="font-size:3px; font-family:Arial" x="167" y="285">Min: 1.7 km</text><text fill="#FFFFFF" style="font-size:3px; font-family:Arial" x="167" y="290">Max: 11.0 km</text><polyline fill="none" points="88.62320078071207,75.73257243358239 88.03037326189224,75.2749466747191 88.05013417918235,74.63426904568041 88.01061234448571,74.10799676894385 87.91180775803514,73.51307879711385 87.89204684074502,73.23850074013171 87.79324225429446,72.68934361910215 87.77348133688793,72.43764615651162 88.06989509635605,71.81984209782968 88.28726518666372,71.705433752315 88.9393754574703,71.33932665493921 89.37411563796923,71.15627288245014 89.61124664556701,71.06474594022438 90.3819224202307,70.95033721002983 90.87594535259996,70.85881018395594 91.09331544290762,70.74440134878387 91.48853378882632,70.5384652986977 91.94303488661535,70.88169194402872 92.00231763848569,71.29356322580134 92.06160039035603,71.68255207617767 92.1406440596329,72.0944218893419 92.23944864608347,72.43764615651162 92.33825323265046,72.98680389304354 92.35801414982416,73.19273769804568 92.43705781910103,73.35290830471786 92.49634057097137,73.74189358818694 92.5556233227253,73.92494525312213 92.29873139795382,74.56562490557553 92.00231763848569,74.7257945331221 91.8639912174549,74.84020134003367 91.50829470600002,75.00037077175512 91.17235911206808,75.11477743882278 90.7969016834395,75.22918404744996 90.65857526229229,75.34359059795679 90.30287875095382,75.45799709009589 90.1447914125165,75.50375967068248 89.98670407419559,75.59528480381414 89.61124664556701,75.70969116773631 89.37411563796923,75.73257243358239 89.01841912674718,75.84697872759716 88.50463527697138,75.98426620343525 87.8525250061648,75.45799709009589 87.87228592345491,74.84020134003367 87.81300317158457,74.4969807446032 87.77348133688793,74.1308781978878 87.81300317158457,73.78765651842696 87.75372041971423,73.60460474152933 87.7339595023077,73.42155281548912 87.71419858501758,73.05544851568993 87.69443766784389,72.66646204328572 87.61539399856701,72.32323812572577 87.81300317158457,72.00289532939496 88.14893876563292,71.77407876656798 88.32678702136036,71.705433752315 88.48487435968127,71.6139070338977 88.82080995372962,71.43085348526074 88.97889729205053,71.36220836600114 89.15674554777797,71.27068150776904 89.69029031472746,71.0876276793133 90.1250304953428,71.04186419887992 90.50048792397138,70.97321896076028 91.09331544290762,70.74440134878387 91.25140278122853,70.67575601975841 91.42925103683956,70.60711066970543 91.94303488661535,70.62999245538958 92.1406440596329,71.29356322580134 92.12088314234279,71.75119709750288 92.1406440596329,72.18594841181766 92.18016589409672,72.57493571654777 92.21968772879336,72.9639223475242 92.23944864608347,73.14697464657365 92.25920956337359,73.33002679646597 92.37777506711427,73.67324917532096 92.51610148814507,74.01647102966672 92.5556233227253,74.19952247089532 92.71371066127904,74.56562490557553 92.8125152477296,74.7257945331221 93.14845084166154,74.84020134003367 93.30653818009887,74.74867589920177 93.44486460124608,74.63426904568041 93.78080019529443,74.42833656251605 93.93888753361534,74.33681095381326 95.00597706763074,75.25206536226324 95.00597706763074,75.66392862914654 95.00597706763074,75.84697872759716 95.02573798492085,76.03002867681789 95.06525981950108,76.41900932349381 95.08502073690761,76.60205880647118 95.10478165408131,76.76222698166384 95.18382532335818,77.26561193171074 95.2233471579384,77.44866072466539 95.24310807522852,77.63170936847746 95.32215174438898,77.97492517346109 95.34191266167909,78.15797338835546 95.3616735789692,78.36390245171788 95.44071724824607,78.70711713783385 95.44071724824607,78.89016475598328 95.5,79.07321222500468 95.30239082698245,79.50794936584134 94.9466943157604,79.59947286716488 94.76884606003296,79.59947286716488 94.41314954869449,79.66811546876852 94.23530129308347,79.66811546876852 93.93888753361534,79.82828145747771 93.78080019529443,79.94268566527171 93.6227128568571,80.03420898945478 93.10892900719773,80.28589793879655 92.71371066127904,80.33165953563002 92.5358624055516,80.33165953563002 92.37777506711427,80.35454033051792 92.06160039035603,80.42318270135729 91.90351305203512,80.46894427025109 91.607099292567,80.62910968787037 91.36996828508563,80.81215573960799 91.25140278122853,80.9494401805132 91.15259819477797,81.08672453754116 90.83642351801973,81.22400881063368 90.54000975843519,81.31553161272313 90.20407416450325,81.40705437753059 90.04598682606593,81.45281574594264 89.88789948774502,81.52145778108388 89.53220297640655,81.61298046199954 89.37411563796923,81.70450310561864 89.1962673823582,81.75026441339287 88.84057087101974,81.84178700105986 88.66272261540871,81.91042891734105 88.48487435968127,81.95619018324942 88.1291778483428,82.09347392492054 87.75372041971423,82.16211576420756 87.57587216398679,82.20787697884953 87.20041473535821,82.29939938000462 87.00280556234065,82.36804115648556 86.80519638943952,82.4138023291016 85.8566723591648,82.45956349236076 85.48121493053623,82.4138023291016 85.52073676511645,82.4138023291016 85.52073676511645,82.39092174396501 85.52073676511645,82.39092174396501 85.52073676511645,82.4138023291016 85.54049768240657,82.39092174396501 85.54049768240657,82.39092174396501 85.54049768240657,82.39092174396501 85.52073676511645,82.36804115648556 85.54049768240657,82.36804115648556 85.54049768240657,82.36804115648556 85.54049768240657,82.39092174396501 85.54049768240657,82.4138023291016 85.56025859969668,82.39092174396501 85.56025859969668,82.39092174396501 85.40217126137577,82.4138023291016 84.94767016358674,82.45956349236076 84.59197365213186,82.84853300411487 84.17699438892305,83.14597982320993 83.97938521602191,83.1688603314833 83.82129787758458,83.21462134088506 83.62368870456703,83.14597982320993 83.54464503540657,82.8256524632161 83.60392778727692,83.03157724709308 83.50512320082635,83.23750184218807 82.87277384730987,83.32902382384054 82.39851183223072,83.39766528557811 82.12185899005271,83.44342624844285 81.74640156142414,83.53494814617443 81.52903147123288,83.55782861480839 81.35118321550544,83.62647000668221 80.97572578676045,83.67223092287895 80.77811661397573,83.69511137751397 80.58050744084176,83.74087227974087 80.16552817774937,83.80951361569169 79.96791900473181,83.8323940563132 79.79007074900437,83.85527449466463 79.39485240308568,83.92391579563264 79.19724323018454,83.96967665122065 78.64393754582852,83.8323940563132 78.4858502073912,83.74087227974087 78.30800195178017,83.62647000668221 77.99182727502193,83.60358954501862 77.6756525982637,83.69511137751397 77.31995608692523,83.78663317274186 77.16186874860432,83.85527449466463 76.98402049287688,83.90103536426614 76.70736765069887,84.10695916225086 76.58880214695819,84.22136119061906 76.29238838737365,84.42728469490248 75.9366918761516,84.49592582104378 75.73908270313405,84.51880619180156 75.54147353011649,84.54168656023103 75.02768968045712,84.61032765131677 74.79055867285933,84.65608836713363 74.3360575750703,84.63320801043301 73.96060014644172,84.65608836713363 73.74323005613405,84.67896872154961 73.05159795074724,84.83913113712333 72.89351061242633,84.81625079906371 72.71566235669889,84.81625079906371 72.37972676276695,84.77049011590134 71.86594291299116,84.83913113712333 71.74737740913406,84.93065246620972 71.45096364966594,85.09081470230012 71.11502805561759,85.11369501239096 70.75933154427912,85.13657532022626 70.56172237137798,85.29673740948783 70.36411319847684,85.43401910936518 70.16650402545929,85.43401910936518 69.98865576973185,85.43401910936518 69.63295925839338,85.47977965742757 69.45511100266594,85.5026599279081 69.2575018297648,85.52554019604577 68.50658697262406,85.70858225750271 68.0520858746022,85.77722299215384 67.61734569410328,85.86874393891776 67.39997560379561,85.89162416983163 66.90595267142635,85.80010323226452 66.78738716768567,85.73146250468562 66.66882166382857,85.66282175613742 66.07599414500874,85.63994150189683 65.6214930472197,85.86874393891776 65.26579653576482,85.93738462455804 65.0879482801538,85.96026484839967 64.71249085152522,85.98314506998577 64.51488167850766,86.0060252892581 64.33703342289664,86.0060252892581 63.961575994151644,86.02890550611482 63.783727738424204,86.02890550611482 63.40827030991204,86.12042635043326 63.230422054301016,86.1433065556339 63.052573798573576,86.21194715741149 62.716638204525225,86.34922829800053 62.5585508660879,86.44074901171552 61.847157843527384,86.62379032737226 60.20700170786586,86.53226968817762 60.04891436942853,86.53226968817762 59.75250060996041,86.57803001237335 59.61417418892961,86.64667048132105 59.43632593320217,86.71531092922669 59.13991217373405,86.87547189279576 58.981824835413136,86.94411227083765 58.82373749697581,87.01275262785202 58.46804098575376,87.08139296394074 58.30995364720002,87.1042730712943 57.93449621857144,87.15003327900195 57.756647962960415,87.15003327900195 57.57879970734939,87.1271531763341 57.223103196010925,87.1271531763341 56.90692851925269,87.26443375753297 56.768602098105475,87.33307401667116 56.41290558676701,87.4245943295391 56.2548182484461,87.47035447203962 55.89912173699122,87.53899466829898 55.721273481380194,87.5618747290282 55.54342522576917,87.5618747290282 55.187728714430705,87.58475478745822 55.009880458703265,87.51611460518325 54.851793120382354,87.51611460518325 54.00207367655821,87.9050753605552 53.863747255527414,87.9050753605552 53.685898999799974,87.9050753605552 53.33020248846151,87.9050753605552 53.15235423273407,87.9050753605552 52.974505977123044,87.88219533475058 52.618809465900995,87.88219533475058 52.263112954446115,87.8593153066322 52.10502561600879,87.8593153066322 51.90741644310765,87.83643527621462 51.551719931769185,87.76779517086106 51.39363259333186,87.76779517086106 51.215784337720834,87.76779517086106 50.86008782638237,87.76779517086106 50.68223957065493,87.74491513110115 50.504391315043904,87.72203508896928 50.16845572099555,87.33307401667116 50.030129299964756,87.28731384626008 49.7139546230901,87.24155366652121 49.397779946331866,87.28731384626008 49.08160526957363,87.3559540983988 48.92351793125272,87.37883417782723 48.627104171784595,87.3559540983988 48.429494998883456,87.28731384626008 48.27140766044613,87.26443375753297 47.87618931452744,87.15003327900195 47.71810197609011,87.15003327900195 47.401927299331874,87.15003327900195 47.16479629173409,87.21867357309384 46.98694803612307,87.24155366652121 46.651012442074716,87.26443375753297 46.45340326917358,87.24155366652121 46.27555501344614,87.21867357309384 45.91985850210767,87.15003327900195 45.36655281775165,87.08139296394074 44.299463283852674,87.05851285424433 44.12161502824165,87.05851285424433 43.647353013046086,87.01275262785202 43.153330080676824,86.96699239221925 43.01500365952961,86.94411227083765 42.856916321092285,86.94411227083765 42.54074164433405,86.96699239221925 42.40241522330325,87.01275262785202 42.22456696757581,87.0356327421905 41.71078311780002,87.0356327421905 41.55269577947911,87.01275262785202 41.41436935844831,86.96699239221925 41.07843376439996,86.85259176217369 40.900585508788936,86.82971162919421 40.663454501191154,86.80683149384276 40.307757989736274,86.80683149384276 40.12990973412525,86.80683149384276 39.97182239580434,86.82971162919421 39.61612588434946,86.82971162919421 39.43827762885485,86.78395135620667 39.26042937312741,86.73819107390591 38.944254696252756,86.66955063299974 38.0550134179648,86.60091017108061 37.87716516223736,86.57803001237335 37.541229568305425,86.69243078229192 37.20529397414066,86.80683149384276 37.04720663581975,86.80683149384276 36.67174920719117,86.80683149384276 36.51366186887026,86.78395135620667 36.316052695852704,86.76107121625682 36.01963893638458,86.66955063299974 35.841790680773556,86.62379032737226 35.34776774828788,86.64667048132105 35.18968040996697,86.71531092922669 34.85374481591862,86.78395135620667 34.67589656019118,86.78395135620667 34.3202000487363,86.76107121625682 34.162112710415386,86.76107121625682 33.984264454687946,86.76107121625682 33.391436935868114,86.71531092922669 33.15430592827033,86.69243078229192 32.97645767265931,86.69243078229192 32.581239326740615,86.66955063299974 31.8896072213538,86.34922829800053 31.731519882916473,86.28058773816156 31.356062454287894,86.23482735331345 31.00036594294943,86.28058773816156 30.44706025859341,86.3034679271077 30.11112466454506,86.25770754687255 29.933276408934034,86.23482735331345 29.75542815332301,86.18906695913756 29.320687972707674,86.16618675857899 29.182361551676877,86.21194715741149 28.984752378775738,86.21194715741149 28.648816784610972,86.25770754687255 28.451207611709833,86.28058773816156 28.07575018296484,86.3034679271077 27.759575506323017,86.28058773816156 27.601488168002106,86.23482735331345 27.423639912274666,86.16618675857899 27.127226152806543,86.09754614280246 26.949377897079103,86.0746659329161 26.61344230303075,86.051785720716 26.376311295549385,86.02890550611482 26.19846303993836,86.02890550611482 25.84276652848348,86.051785720716 25.625396438292228,86.0746659329161 25.447548182564788,86.09754614280246 25.111612588516437,86.09754614280246 24.716394242597744,86.051785720716 24.538545986870304,86.0060252892581 24.360697731142864,85.98314506998577 24.0050012198044,85.91450439837354 23.846913881483488,85.93738462455804 23.669065625872463,85.91450439837354 23.175042693386786,86.02890550611482 22.878628933918662,86.16618675857899 22.799585264758207,86.1433065556339 22.779824347468093,86.12042635043326 22.779824347468093,86.12042635043326 22.799585264758207,86.12042635043326 22.799585264758207,86.12042635043326 22.799585264758207,86.12042635043326 22.779824347468093,86.12042635043326 22.740302512887865,86.12042635043326 22.779824347468093,86.1433065556339 22.740302512887865,86.16618675857899 22.779824347468093,86.1433065556339 22.76006343017798,86.1433065556339 22.740302512887865,86.16618675857899 22.76006343017798,86.16618675857899 22.76006343017798,86.21194715741149 22.779824347468093,86.21194715741149 22.779824347468093,86.21194715741149 22.779824347468093,86.21194715741149 22.779824347468093,86.21194715741149 22.779824347468093,86.21194715741149 22.81934618204832,86.16618675857899 22.81934618204832,86.16618675857899 22.779824347468093,86.21194715741149 22.779824347468093,86.21194715741149 22.641497926437296,86.18906695913756 22.443888753419742,86.18906695913756 22.068431324791163,86.25770754687255 21.83130031719338,86.32634811368189 21.00134179077577,86.18906695913756 20.7839717004681,86.18906695913756 20.368992437259294,86.18906695913756 20.171383264358155,86.21194715741149 19.776164918439463,86.3034679271077 19.40070748969447,86.39498865949281 19.1833373993868,86.44074901171552 19.00548914365936,86.46362918436353 18.610270797740668,86.48650935461046 18.432422542013228,86.48650935461046 18.215052451821975,86.48650935461046 17.85935594048351,86.57803001237335 17.503659429145046,86.69243078229192 17.345572090824135,86.73819107390591 17.14796291780658,86.76107121625682 15.705415955162607,87.37883417782723 15.488045864971355,87.4017142548546 15.329958526534028,87.44747440199717 14.914979263325222,87.51611460518325 14.717370090307668,87.53899466829898 14.5,87.47035447203962 14.559282751870342,87.31019393262977 14.638326421147212,87.15003327900195 14.67784825572744,87.01275262785202 14.737131007597782,86.82971162919421 14.85569651145488,86.5093895225873 14.934740180615336,86.34922829800053 15.073066601646133,85.86874393891776 15.092827519052662,85.84586370574834 15.073066601646133,85.91450439837354 14.934740180615336,85.96026484839967 14.895218346035108,85.98314506998577 14.717370090307668,85.96026484839967 14.717370090307668,85.80010323226452 14.756891925004311,85.70858225750271 14.816174676874653,85.59418098660535 14.934740180615336,85.2509768242162 14.994022932485677,85.04505407506076 15.053305684356019,84.90777213740512 15.191632105503231,84.47304544803046 15.349719443824142,84.12983957256074 15.725176872569136,83.1688603314833 15.705415955162607,82.77989137449185 15.646133203292266,82.59684692636074 15.626372285885736,82.20787697884953 15.646133203292266,82.0477126869664 15.586850451421924,81.49857710507058 15.705415955162607,81.10960525552218 15.764698707032949,80.903678709612 15.84374237630982,80.46894427025109 15.942546962760389,80.05708981465432 16.120395218371414,79.69099633132282 16.19943888753187,79.50794936584134 16.39704806066584,78.91304569781641 16.47609172970988,78.75287905636651 16.53537448158022,78.56983132637106 16.792266406468116,77.97492517346109 16.87131007562857,77.83763891436683 16.950353744905442,77.6088282961282 17.207245669676922,77.21984971009078 17.543181263725273,76.83087045041611 17.681507684872486,76.62493998138234 18.531227128696628,76.14443481925991 19.20309831679333,76.23595969128655 19.874969504890032,76.46477170825528 20.092339595081285,76.51053408365988 20.428275189129636,76.55629644969304 20.606123444857076,76.53341526782606 20.961819956079125,76.48765289715084 21.11990729451645,76.44189051701687 21.31751646741759,76.35036572895478 21.67321297887247,76.30460332083749 21.851061234483495,76.30460332083749 22.00914857292082,76.28172211333003 22.32532324967906,76.21307847680873 22.503171505290084,76.21307847680873 22.977433520485647,76.16731604079541 23.135520858806558,76.12155359542521 23.313369114533998,76.07579114077089 23.669065625872463,75.98426620343525 24.14332764095161,75.9385037207976 24.340936813969165,75.86985997937154 24.499024152290076,75.82409747342172 24.815198829048313,75.70969116773631 25.13137350580655,75.64104735640285 25.487070017145015,75.57240352405643 25.645157355465926,75.54952224189765 25.882288363063708,75.50375967068248 26.2775067089824,75.43511579636834 26.45535496470984,75.389353201841 26.61344230303075,75.36647190102667 26.969138814369217,75.3207092925004 27.127226152806543,75.2749466747191 27.403878994868137,75.20630273041024 27.700292754452676,75.11477743882278 27.8781410100637,75.04613344556128 28.03622834838461,75.00037077175512 28.372163942432962,75.00037077175512 28.53025128087029,75.02325210979325 28.6883386191912,75.04613344556128 29.162600634386763,75.09189611005422 29.320687972707674,75.06901477892825 29.557818980305456,74.81731998336909 29.557818980305456,74.47409935288306 29.557818980305456,74.4969807446032 29.557818980305456,74.51986213392229 29.557818980305456,74.4969807446032 29.57757989759557,74.4969807446032 29.57757989759557,74.4969807446032 29.63686264946591,74.4969807446032 29.775189070496708,74.47409935288306 30.01232007809449,74.35969235953235 29.91351549164392,74.17664104886353 29.85423273977358,73.94782670077984 29.73566723591648,73.58172325896157 29.597340814885683,73.14697464657365 29.57757989759557,72.9639223475242 29.557818980305456,72.78086989923031 29.478775311145,72.41476455504016 29.439253476448357,72.23171165911481 29.399731641984545,72.07154025281488 29.300927055533975,71.68255207617767 29.221883386257105,71.5223802781984 29.162600634386763,71.1333911504189 29.123078799806535,70.95033721002983 29.083556965226308,70.74440134878387 29.41949255927466,70.19523812891566 29.57757989759557,70.19523812891566 29.873993657063693,70.2410017818911 30.032080995384604,70.21811995655298 30.170407416531816,70.19523812891566 30.328494754852727,70.21811995655298 30.862039521918632,70.19523812891566 31.05964869481977,70.19523812891566 31.217736033257097,70.19523812891566 31.553671627305448,70.14947446664155 31.731519882916473,70.12659263197565 31.909368138643913,70.10371079506876 32.24530373257585,70.03506527013087 32.42315198830329,70.03506527013087 32.60100024403073,70.03506527013087 32.97645767265931,69.96641972425277 33.15430592827033,69.92065601533977 33.371676018578,69.89777415743447 33.76689436461311,69.87489229711355 34.162112710415386,69.92065601533977 34.339960966142826,69.94353787101863 35.32800683111418,69.78336483267776 35.38728958286811,69.80624670232646 35.54537692130543,69.82912856961775 35.604659673175775,69.85201043453708 35.663942425046116,69.85201043453708 35.861551597947255,69.87489229711355 36.039399853674695,69.82912856961775 36.118443522951566,69.76048296077352 36.197487191995606,69.71471920989279 36.29629177856259,69.64607356609486 36.375335447723046,69.5545460083813 36.43461819959339,69.50878221556195 36.61246645532083,69.44013650882698 36.79031471104827,69.41725460188172 36.88911929749884,69.44013650882698 36.96816296665929,69.44013650882698 37.086728470399976,69.44013650882698 37.18553305696696,69.44013650882698 37.34362039528787,69.48590031560161 37.42266406444833,69.53166411317943 37.521468650898896,69.5545460083813 37.67955598933622,69.64607356609486 37.79812149319332,69.64607356609486 37.91668699681759,69.64607356609486 37.99573066609446,69.64607356609486 38.09453525254503,69.64607356609486 38.3119053428527,69.62319168013346 38.410709929303266,69.60030979191652 38.509514515753835,69.5774279012985 38.608319102204405,69.53166411317943 38.7268846060615,69.53166411317943 38.82568919251207,69.50878221556195 39.08258111739997,69.46301841338573 39.26042937312741,69.46301841338573 39.45803854602855,69.44013650882698 39.85325689194724,69.39437269268092 40.050866064964794,69.37149078110815 40.24847523786593,69.37149078110815 40.68321541836485,69.32572695093404 41.05867284710985,69.32572695093404 41.2562820201274,69.34860886719252 41.41436935844831,69.37149078110815 41.78982678707689,69.39437269268092 42.00719687738456,69.37149078110815 42.38265430589672,69.3028450323909 42.758111734641716,69.27996311146126 42.955720907542855,69.2570811882324 43.133569163270295,69.2570811882324 43.5485484264791,69.18843540456146 43.904244937817566,69.16555347200483 44.12161502824165,69.142671537149 44.31922420114279,69.142671537149 44.991095389123075,69.142671537149 45.089899975573644,69.18843540456146 45.10966089298017,69.18843540456146 45.28750914870761,69.18843540456146 45.445596487028524,69.18843540456146 45.8210539156571,69.142671537149 45.99890217126813,69.1197895998921 46.156989509705454,69.1197895998921 46.71029519406147,69.18843540456146 46.8881434496725,69.21131733483344 47.06599170528352,69.23419926270435 47.44144913402852,69.2570811882324 47.816906562657095,69.23419926270435 47.994754818384536,69.21131733483344 48.17260307399556,69.18843540456146 48.54806050262414,69.142671537149 48.725908758235164,69.1197895998921 49.10136618698016,68.95961597407586 49.417540863738395,68.82232420389482 49.59538911934942,68.77656026184559 49.91156379610766,68.75367828736489 50.049890217138454,68.79944223401253 50.18821663828567,68.84520617140515 50.34630397660658,68.89097009948455 51.33434984146152,68.93673401823617 51.551719931769185,68.91385206003906 51.69004635279998,68.91385206003906 52.164308367995545,68.77656026184559 52.30263478902634,68.68503234976379 52.46072212734725,68.57062240720552 53.19187606743071,68.13586409389973 53.88350817281753,67.95280771014222 54.199682849575765,67.86127946230408 54.357770187896676,67.83839739454561 54.515857526334,67.76975117716938 54.851793120382354,67.7011049388384 55.009880458703265,67.7011049388384 55.48414247389883,67.90704359089432 55.93864357168786,68.02145387150813 56.07696999271866,67.99857182006235 56.27457916573621,67.95280771014222 56.61051475966815,67.90704359089432 56.78836301539559,67.81551532444428 56.9266894365428,67.74686910006858 57.26262503047474,67.58669449502486 57.59856062452309,67.51804820075631 57.77640888025053,67.49516609797138 57.95425713597797,67.4494018854457 58.30995364720002,67.51804820075631 58.68541107594501,67.56381239921029 58.84349841426592,67.60957658843836 59.001585752586834,67.60957658843836 59.31776042946149,67.58669449502486 59.49560868507251,67.58669449502486 59.65369602350984,67.60957658843836 59.98963161755819,67.58669449502486 60.1477189558791,67.58669449502486 60.305806294316426,67.56381239921029 60.62198097107466,67.49516609797138 60.780068309395574,67.47228399282903 60.9381556478329,67.42651977567584 61.27409124188125,67.28922706817684 61.43217858020216,67.22058068301703 61.7483532569604,67.12905213667545 61.94596242997795,67.10616999429476 62.26213710673619,67.1519342768006 62.439985362347215,67.1519342768006 62.57831178349443,67.1519342768006 62.93400829471648,67.10616999429476 63.11185655044392,67.08328784961486 63.40827030991204,66.923112771241 63.56635764823295,66.85446627406054 63.72444498667028,66.76293757862004 64.574164430378,66.44258685059322 65.14723103202414,66.57988007573294 65.28555745317135,66.6256444654282 65.42388387408573,66.64852665674698 65.58197121252306,66.71717321683536 65.8981458892813,66.71717321683536 66.07599414500874,66.69429103247239 66.25384240061976,66.6256444654282 66.88619175413623,66.32817576562229 67.00475725787692,66.2595290865138 67.34069285192527,66.1222356656217 67.69638936338015,66.07647117330635 67.85447670170106,66.03070667172142 67.99280312284827,66.03070667172142 68.32873871689662,65.98494216073595 68.48682605521753,65.98494216073595 68.64491339353845,65.98494216073595 68.96108807029668,65.8934131108399 69.1191754086176,65.80188402354543 69.2575018297648,65.71035489911446 69.37606733350549,65.59594344101788 69.35630641621538,65.57306114236417 69.35630641621538,65.55017884145491 69.81080751400441,65.39000266951916 69.98865576973185,65.36712034989614 70.70004879240878,65.45864961431653 71.09526713832747,65.39000266951916 71.43120273249224,65.22982638339454 71.74737740913406,65.11541468047653 71.94498658215161,65.16117936857336 72.12283483776264,65.16117936857336 72.41924859723076,65.11541468047653 72.69590143940877,65.0010029191908 72.81446694326587,64.8865910996974 72.95279336429667,64.79506160209712 73.76299097354058,64.63488489156589 74.05940473289229,64.63488489156589 74.1977311540395,64.58912009611959 74.35581849247683,64.56623769488942 74.49414491339121,64.56623769488942 74.79055867285933,64.52047288551694 74.94864601129666,64.47470806678757 75.10673334961757,64.42894323868677 75.32410344004165,64.3831784012873 75.44266894366592,64.3831784012873 75.60075628210325,64.31453112773306 75.75884362042416,64.29164869856322 76.23310563561972,64.13147162889072 76.37143205665052,64.06282427838596 76.52951939497143,63.99417690689734 76.82593315455597,63.856882100881194 76.96425957547035,63.788234666368226 77.49780434265267,63.62805723765632 78.24871919990983,63.14752426603809 78.38704562094063,63.10175916743174 78.52537204208784,63.05599405954126 78.68345938040875,63.033111502067186 78.99963405705057,62.941581249047886 79.17748231277801,62.89581610850291 79.33556965109892,62.85005095870292 79.65174432797357,62.80428579951695 79.8295925835846,62.758520631003194 80.00744083919562,62.68987286077754 80.34337643336039,62.59834246769606 80.54098560637794,62.575459863684955 80.69907294469886,62.55257725728734 81.19309587706812,62.438164190229145 81.33142229821533,62.41528156984714 81.44998780195601,62.36951632205455 81.80568431329448,62.27798579848604 81.96377165161539,62.23222052276833 82.12185899005271,62.209337881344254 82.45779458410107,62.09492463945935 82.91229568200652,62.50681203746353 82.95181751647033,62.66699026596325 83.01110026845708,62.85005095870292 83.10990485490765,63.170406811725115 83.18894852406811,63.35346709405712 83.40631861437578,63.94841198081849 83.50512320082635,64.20011895848438 83.5644059528131,64.36029597914603 83.62368870456703,64.68064967765531 83.64344962185714,64.84082635556115 83.68297145655379,64.97812055997201 83.66321053926367,65.06964998295007 83.78177604288794,65.39000266951916 83.82129787758458,65.57306114236417 83.93986338132527,66.0993534205918 83.99914613319561,66.28241131528921 84.01890705048572,66.46546906065487 84.0979507197626,66.80870193097508 84.13747255434282,66.9459949323209 84.15723347163294,67.10616999429476 84.19675530621316,67.4494018854457 84.21651622350328,67.632458679509 84.2362771409098,67.79263325197098 84.29555989266373,68.15874613134656 84.31532081007026,68.36468436369614 84.35484264453407,68.5477404116682 84.41412539652083,68.89097009948455 84.43388631381094,69.05114377432619 84.43388631381094,69.18843540456146 84.49316906568129,69.50878221556195 84.5129299829714,69.66895544972795 84.57221273484174,69.98930157526047 84.59197365213186,70.49270170637465 84.94767016358674,70.74440134878387 85.18480117095169,70.69863779841398 85.61954135168344,70.62999245538958 85.8566723591648,70.67575601975841 85.95547694573179,70.76728312043997 85.9752378630219,70.76728312043997 85.95547694573179,70.76728312043997 85.9752378630219,70.79016488985508 85.9752378630219,70.79016488985508 86.07404244935606,71.0876276793133 86.19260795321316,71.27068150776904 86.82495730661321,71.15627288245014 87.338741156389,71.0189824551926 87.61539399856701,70.81304665682546" stroke="#4dd2ff" stroke-linecap="round" stroke-linejoin="round" stroke-width="0.5"><title>2023-02-09 11.0km</title></polyline><polyline fill="none" points="176.89141070947517,69.9652794624999 176.86939385707956,69.6593557666929 177.33174775762018,67.51787942339433 177.5959499864839,67.39041001553414 178.12435444421135,67.18645882779674 178.36653982067946,67.08448317156581 178.8509105736157,66.88053173453955 179.68755096499808,66.804049902712 179.9517531938618,66.75306200189516 180.50217450398486,66.65108616910584 180.7883935852442,66.60009823706059 181.33881489548367,66.49812234193087 181.88923620560672,66.90602567323367 181.8452025006991,67.41590390224883 181.95528676267713,68.56312611869362 181.93326991039794,68.97102608365822 182.02133731998038,69.42991274945962 182.13142158207484,69.9907730869163 181.80116879602429,70.62811285356293 181.58100027195178,70.70459351644968 181.38284860027488,70.78107415602426 181.0085621093167,70.93403536498954 180.6122587659629,71.03600945226208 180.19393857032992,71.1889705053909 179.57746670290362,71.31643797819561 179.37931503134314,71.36742494914506 179.20318021217827,71.44390538615698 178.80687686882447,71.5713727291004 178.60872519714758,71.62235964808497 178.41057352547068,71.72433345486934 177.8161185105564,71.87729408721498 177.41981516720261,71.97926779018599 176.9354444143828,71.11248999055533 176.9354444143828,70.67909996477829 176.9574612667784,70.27120278424991 177.02351182384882,69.6593557666929 177.06754552875645,69.42991274945962 177.08956238103565,69.25145692384103 177.02351182384882,68.07874404669565 177.06754552875645,67.8492995800334 177.3757814624114,67.49238554701151 177.52989942929707,67.41590390224883 177.66200054367073,67.33942223417398 178.2344387061894,67.16096491766803 178.4325903778663,67.13547100487631 178.78486001631245,66.98250747386192 179.20318021217827,66.93151960935211 179.59948355541565,66.82954384929326 179.81965207948815,66.77855595364235 180.01780375104863,66.67658013118489 180.414107094286,66.5491102947999 180.8104104376398,66.31966442539124 181.0305789617123,66.24318242214213 181.66906768153422,66.93151960935211 181.73511823872104,67.64534876633843 181.80116879602429,68.05325022742909 181.8672193530947,68.28269450708467 181.93326991039794,68.86905115480477 182.04335417237598,69.30244431557367 182.08738787728362,69.86330493880087 182.13142158207484,70.29669637753977 182.15343843435403,70.52613859997655 183.32033161190338,70.93403536498954 183.7386518076528,70.70459351644968 184.8174775755033,71.62235964808497 184.77344387071207,71.74982690010802 184.8174775755033,71.80081378278555 185.0376460995758,72.31068203775794 185.081679804367,72.51462904880464 185.12571350915823,72.97350921612815 185.14773036155384,73.55985487178259 185.14773036155384,73.73830762479338 185.19176406634506,73.96774669158913 185.19176406634506,73.96774669158913 185.19176406634506,73.96774669158913 185.34588203323074,74.93648709880654 185.43394944281317,75.49733509414364 185.5,75.72677254804876 185.2798314760439,76.28761877218494 184.8394944278989,76.33860473021923 184.2450394128682,76.3640977053874 183.82671921723522,76.46606957988115 183.67260125034954,76.54254845857213 183.3423484644154,76.77198495413177 183.21024734992534,76.87395666254451 182.83596085908357,77.0524070521351 182.63780918740667,77.07789995448547 182.21948899165727,77.12888575151737 182.02133731998038,77.15437864618434 181.82318564830348,77.15437864618434 181.16268007608596,77.35832170960202 180.83242729015183,77.58775745732419 180.72234302805737,77.76620733784512 180.43612394679803,78.02113551796356 180.23797227512114,78.07212112280831 180.03982060344424,78.14859951059043 179.64351726020686,78.27606343830121 179.22519706445746,78.40352730108134 179.00502854050137,78.45451282804424 178.80687686882447,78.53099109901814 178.38855667307507,78.70944030697865 178.14637129649054,78.76042577151384 177.92620277253445,78.81141122574627 177.52989942929707,78.98986023373436 177.30973090522457,79.01535293880443 177.08956238103565,79.0918310383131 176.64922533300705,79.16830911450961 176.42905680893455,79.21929448563606 176.03275346569717,79.34675786801381 175.81258494162466,79.37225053670409 175.43829845066648,79.49971384111268 174.71174232126214,79.47422118544637 174.57964120688848,79.37225053670409 174.38148953521159,79.27027984632878 174.4475400923984,79.27027984632878 174.4475400923984,79.27027984632878 174.4475400923984,79.29577252284798 174.4475400923984,79.29577252284798 174.46955694491044,79.32126519668964 174.42552324011922,79.34675786801381 174.33745583042037,79.34675786801381 173.85308507760055,79.39774320277502 172.9503941287985,80.18801456331857 172.75224245723803,80.21350714634173 172.55409078556113,80.23899972676008 172.15778744232375,80.28998487968056 171.3871976081282,80.44294027633441 171.1890459364513,80.51941793956212 170.81475944560952,80.59589557950676 170.63862462632824,80.62138812092599 170.44047295465134,80.64688065974042 170.04416961129755,80.69786572962767 169.84601793973707,80.72335826068593 169.62584941566456,80.74885078918305 169.20752921991516,80.79983583824651 169.00937754823826,80.8253283589147 168.78920902428217,80.87631339242216 168.32685512374155,80.9527909232711 168.12870345206466,80.97828342833964 167.90853492799215,81.029268430706 167.44618102756795,81.08025342275505 166.78567545535043,80.97828342833964 166.63155748846475,80.87631339242216 166.47743952157907,80.77434331501718 165.99306876875926,80.72335826068593 165.81693394947797,80.77434331501718 165.6407991303131,80.79983583824651 165.26651263935491,80.92729841562686 164.91424300079234,81.05476092801837 164.76012503402308,81.13123840429762 164.47390595264733,81.38616315642139 164.01155205222312,81.71756494604051 163.57121500419453,81.76854979788186 163.39508018491324,81.79404221982986 163.19692851323634,81.81953463917307 162.80062516988255,81.89601188173401 162.58045664592646,81.92150429074536 162.36028812185396,81.92150429074536 161.91995107370894,81.92150429074536 161.25944550149143,81.94699669719557 161.03927697753534,81.97248910096823 160.29070399573538,82.09995108102157 159.8944006523816,82.02347390081559 159.5201141614234,82.07445869022922 159.14582767069805,82.17642823790084 158.99170970369596,82.30389011414081 158.28717042680364,82.45684427990636 158.02296819793992,82.45684427990636 157.31842892093118,82.8392292852659 156.98817613476422,82.8392292852659 156.37170426757075,82.86472159816185 156.17355259589385,82.89021390852577 155.97540092421696,82.94119852138101 155.57909758086316,83.01767542115704 155.4029627616983,83.01767542115704 155.2048110900214,83.06866000803711 154.83052459917963,83.09415229756269 154.28010328905657,83.19612142973347 154.05993476486765,83.2216137064097 153.83976624091156,83.24710598033562 153.5315303070238,83.14513686894497 153.37741234037094,83.01767542115704 152.8710247350391,82.8392292852659 152.78295732534025,82.86472159816185 152.78295732534025,82.89021390852577 152.51875509659294,83.06866000803711 152.36463712959085,83.14513686894497 151.858249524259,83.32358278665924 151.3738787714392,83.37456731119892 150.58127208484802,83.47653632918082 150.18496874149423,83.47653632918082 149.81068225065246,83.52752082262305 149.61253057897557,83.5785053056461 149.4363957598107,83.62948977826454 149.0621092688525,83.75695091439411 148.88597444968764,83.83342756489583 148.53370481112506,84.03736518531514 147.76311497704592,84.06285737626604 147.60899701004382,84.08834956452483 147.69706441974267,84.03736518531514 147.71908127202187,84.03736518531514 147.76311497704592,84.03736518531514 147.76311497704592,84.06285737626604 147.76311497704592,84.06285737626604 147.7410981245339,84.06285737626604 147.7410981245339,84.06285737626604 147.7851318293251,84.06285737626604 147.80714868172072,84.03736518531514 147.80714868172072,84.06285737626604 147.82916553411633,84.03736518531514 147.82916553411633,84.01187299187586 147.82916553411633,84.03736518531514 147.80714868172072,84.03736518531514 147.82916553411633,84.01187299187586 147.82916553411633,84.01187299187586 147.76311497704592,84.01187299187586 147.71908127202187,84.01187299187586 147.63101386243943,84.03736518531514 147.08059255231638,84.16482611380343 146.59622179938015,84.11384175020794 146.243952160934,83.98638079583179 145.51739603152964,84.19031829164305 145.34126121224836,84.29228697724466 145.12109268817585,84.36876346413919 144.72478934493847,84.52171636793355 144.52663767326158,84.59819278478972 144.1303343300242,84.70016130413569 143.9101658059517,84.75114554828906 143.7120141342748,84.77663766650949 143.31571079103742,84.80212978205236 143.0955422669649,84.80212978205236 142.69923892361112,84.85311400539649 142.52310410444625,84.9040982183651 142.32495243276935,85.00606661316124 141.92864908941556,85.08254288195167 141.70848056534305,85.1080349663971 141.46629518899135,85.15901912742993 141.04797499335837,85.2354953494214 140.60763794509694,85.26098741829628 139.99116607767064,85.18451120400277 139.81503125850577,85.2354953494214 139.59486273443326,85.21000327801448 139.63889643922448,85.26098741829628 139.6609132917365,85.31197154817346 139.52881217724644,85.43943182747171 139.4187279152684,85.43943182747171 139.4187279152684,85.41393977677217 139.44074476754759,85.38844772348239 139.44074476754759,85.38844772348239 139.4187279152684,85.36295566767512 139.37469421036076,85.38844772348239 138.93435716221575,85.41393977677217 138.47200326167513,85.49041592094 138.05368306604214,85.4649238754937 137.83351454208605,85.43943182747171 137.15099211747292,85.38844772348239 136.8867898886092,85.36295566767512 136.4464528404642,85.36295566767512 136.22628431639168,85.33746360924852 135.74191356345546,85.31197154817346 135.49972818698734,85.31197154817346 134.88325631967746,84.87860611316864 134.66308779560495,84.85311400539649 134.26678445225116,84.87860611316864 134.06863278057426,84.9550824209582 133.87048110901378,85.00606661316124 133.40812720847316,85.03155870533374 133.14392497949302,85.00606661316124 132.74762163625564,84.87860611316864 132.54946996469516,84.85311400539649 132.1972003261326,84.80212978205236 132.02106550696772,84.77663766650949 131.84493068768643,84.80212978205236 131.44862734444905,84.85311400539649 131.25047567277215,84.87860611316864 131.05232400109526,84.9040982183651 130.67803751013707,84.87860611316864 130.4798858385766,84.85311400539649 130.2817341668997,84.8276218950341 129.33500951342285,84.72565342755115 128.87265561299864,84.62368491852249 128.87265561299864,84.62368491852249 128.85063876060303,84.59819278478972 128.85063876060303,84.5727006484376 128.87265561299864,84.5472085094516 128.828621908091,84.5472085094516 128.80660505581181,84.5472085094516 128.7845882032998,84.59819278478972 128.80660505581181,84.59819278478972 128.828621908091,84.59819278478972 128.828621908091,84.59819278478972 128.87265561299864,84.59819278478972 128.89467246527784,84.5727006484376 128.87265561299864,84.59819278478972 128.87265561299864,84.5727006484376 128.85063876060303,84.59819278478972 128.43231856485363,84.62368491852249 128.27820059796795,84.62368491852249 127.15534112532623,84.49622422381071 126.73702092969324,84.52171636793355 126.56088611029554,84.5472085094516 126.36273443873506,84.5472085094516 125.92239739070646,84.5727006484376 125.72424571902957,84.59819278478972 125.30592552328017,84.5727006484376 125.08575699920766,84.52171636793355 124.93163903232198,84.49622422381071 124.5573525413638,84.39425562130054 124.3592008696869,84.36876346413919 124.18306605052203,84.36876346413919 123.76474585488904,84.41974777587166 123.56659418321215,84.44523992775066 123.19230769225396,84.41974777587166 122.99415602057707,84.39425562130054 122.8180212014122,84.36876346413919 122.4217178580584,84.266794809766 121.49701005709358,84.16482611380343 120.63835281331558,84.31777914219128 120.44020114163868,84.34327130447491 119.97784724109806,84.31777914219128 119.80171242181677,84.29228697724466 119.55952704546507,84.29228697724466 119.0091057352256,84.16482611380343 118.63481924438383,84.13933393331536 118.45868442510255,84.19031829164305 118.28254960593767,84.266794809766 117.57801032892894,84.29228697724466 117.37985865725204,84.31777914219128 116.74136993754655,84.266794809766 116.52120141335763,84.24130263971165 116.12489807023667,84.19031829164305 115.92674639855977,84.16482611380343 115.72859472688287,84.13933393331536 115.35430823592469,84.13933393331536 114.75985322101042,83.80793535067642 114.36354987777304,83.80793535067642 114.16539820609614,83.78244313386676 113.98926338681486,83.75695091439411 113.61497689597309,83.78244313386676 113.26270725741051,83.85891977653955 113.0205218809424,83.80793535067642 112.64623538998421,83.73145869237487 112.44808371830732,83.68047424046381 111.98572981788311,83.60399754323589 111.61144332704134,83.62948977826454 111.43530850776006,83.62948977826454 111.25917368847877,83.68047424046381 110.84085349284578,83.78244313386676 110.6647186735645,83.83342756489583 110.2463984779315,83.83342756489583 110.04824680625461,83.80793535067642 109.67396031529643,83.70596646772174 109.12353900517337,83.5785053056461 108.92538733349647,83.52752082262305 108.5511008426547,83.52752082262305 108.3529491708614,83.50202857716067 108.15479749930091,83.52752082262305 107.78051100845914,83.5785053056461 107.58235933678225,83.5785053056461 107.38420766510535,83.60399754323589 106.94387061707675,83.6549820106593 106.74571894539986,83.62948977826454 106.56958412611857,83.62948977826454 105.9751291112043,83.52752082262305 105.29260668659117,83.42555182539218 104.74218537646811,83.5785053056461 104.5,83.2216137064097 104.5,83.04316771586309 104.54403370479122,82.8392292852659 104.65411796688568,82.50782898100442 104.69815167156048,82.30389011414081 104.76420222886372,82.12544346929644 104.91832019563299,81.71756494604051 104.96235390054062,81.51362543513824 105.11647186730988,81.23320833632897 105.49075835826807,81.15673089117627 105.71092688234057,81.15673089117627 106.10723022557795,81.15673089117627 106.32739874965046,81.10574591481418 106.74571894539986,81.0037759308616 106.94387061707675,80.97828342833964 107.14202228875365,80.9527909232711 107.51630877959542,80.9527909232711 107.73647730355151,80.97828342833964 107.9346289752284,80.97828342833964 108.3309323185822,80.97828342833964 108.50706713774707,81.029268430706 108.68320195702836,81.0037759308616 109.27765697205905,81.0037759308616 109.47580864361953,80.9527909232711 109.67396031529643,80.92729841562686 110.0702636585338,80.8508208769781 110.37849959218875,80.72335826068593 110.53261755919084,80.62138812092599 110.73076923086774,80.44294027633441 110.81883664033376,80.34097002229828 110.92892090254463,80.26449230451544 110.95093775482383,79.72914762557775 110.97295460721944,79.55069914470369 110.90690405003261,79.19380180141889 110.884887197637,78.98986023373436 110.90690405003261,78.63296209051623 110.97295460721944,78.53099109901814 111.01698831201065,78.25057065796864 110.97295460721944,78.0466283216665 110.90690405003261,77.71522167074727 110.884887197637,77.56226460686594 110.81883664033376,77.38381458088406 111.1050557217095,76.67001320430427 111.34724109817762,76.64452026037907 111.5453927697381,76.64452026037907 111.98572981788311,76.61902731377631 112.22791519435123,76.64452026037907 112.69026909477543,76.56804141287284 113.10858929064125,76.51705550156476 113.8571622724412,76.46606957988115 114.56170154933352,76.51705550156476 114.75985322101042,76.51705550156476 115.64052731718402,76.33860473021923 116.03683066053782,76.31311175253359 116.23498233221471,76.3640977053874 117.99633052467834,76.28761877218494 118.19448219635524,76.33860473021923 118.39263386803214,76.389590677878 118.76692035875749,76.389590677878 118.94305517803878,76.389590677878 119.14120684971567,76.389590677878 119.53751019306947,76.41508364777837 119.93381353630684,76.41508364777837 120.10994835547172,76.41508364777837 120.33011687954422,76.389590677878 120.94658874697052,76.21113981567032 121.60709431918804,76.13466083578533 121.87129654793534,76.16015383164631 122.02541451482102,76.18564682494616 122.3997010057792,76.16015383164631 122.5978526774561,76.16015383164631 122.97213916829787,76.16015383164631 123.34642565925606,76.16015383164631 124.05096493614838,76.16015383164631 124.42525142699014,76.10916783723223 124.99768958962522,76.03268882616248 125.15180755639449,76.08367483610346 125.54811089974828,76.08367483610346 125.74626257142518,76.03268882616248 125.92239739070646,76.03268882616248 126.62693666748237,76.10916783723223 127.19937483011745,76.05818183242809 127.35349279700313,76.03268882616248 128.03601522161625,76.28761877218494 127.83786354993936,75.98170280580234 127.83786354993936,75.8542377094127 127.77181299263611,75.77775862037379 127.77181299263611,75.77775862037379 127.81584669742733,75.72677254804876 127.83786354993936,75.77775862037379 127.81584669742733,75.75226558548457 127.79382984503172,75.77775862037379 127.77181299263611,75.75226558548457 127.79382984503172,75.72677254804876 128.1681163359899,75.70127950803726 128.56441967922729,75.67578646542097 128.9827398749767,75.67578646542097 129.2029083990492,75.65029342012713 129.4230769231217,75.62480037230125 129.8634139712667,75.65029342012713 130.2817341668997,75.62480037230125 130.65602065774146,75.57381426876236 130.85417232941836,75.57381426876236 131.07434085349087,75.59930732182693 131.66879586840514,75.52282815494982 131.88896439247765,75.49733509414364 132.32930144062266,75.52282815494982 132.54946996469516,75.54832121315121 132.92375645553693,75.54832121315121 133.12190812721383,75.52282815494982 133.8924979614094,75.4718420306599 135.2135091056116,75.19141816157207 135.4336776298005,75.14043196976127 135.65384615398943,75.11493887002871 136.0501494972268,75.03845955502766 136.22628431639168,74.96198021674354 136.60057080734987,74.86000772926491 136.82073933142237,74.88550085501629 137.01889100309927,74.88550085501629 137.41519434633665,74.80902146997687 137.83351454208605,74.70704892015783 138.00964936125092,74.68155577633297 138.20780103292782,74.63056948057783 138.582087523886,74.52859685814474 138.95637401472777,74.45211736396595 139.15452568640467,74.45211736396595 139.6609132917365,74.50310369605722 139.63889643922448,74.50310369605722 139.6168795869453,74.50310369605722 139.6168795869453,74.50310369605722 139.57284588203765,74.52859685814474 139.57284588203765,74.52859685814474 139.57284588203765,74.52859685814474 139.57284588203765,74.50310369605722 139.57284588203765,74.50310369605722 139.59486273443326,74.42662419406406 139.99116607767064,74.32465148845222 140.43150312581565,74.22267874126555 140.58562109270133,74.17169235217443 141.00394128833432,74.01873312231328 141.18007610773202,73.99323990821722 141.53234574606176,73.99323990821722 141.70848056534305,73.96774669158913 141.88461538462434,73.94225347228348 142.32495243276935,74.04422633373179 142.74327262840234,74.09521274889994 143.13957597175613,73.99323990821722 143.55789616750553,73.89126702597423 143.77806469146162,73.84028056936222 143.97621636313852,73.78929410225828 144.5486545257736,73.58534813002916 144.68075564014725,73.45788181299577 145.25319380266592,73.53436161098944 145.2091600978747,73.50886834762059 145.1871432455955,73.53436161098944 145.45134547434282,73.45788181299577 145.6274802936241,73.40689526799542 146.22193530853838,73.04998916205659 146.42008698021527,73.0244958493422 146.77235661866143,72.97350921612815 146.94849143794272,72.94801589552662 147.1466431095032,72.92252257236396 147.69706441974267,72.84604258733452 147.91723294369876,72.79505591775523 148.42362054914702,72.64209584641503 148.66580592549872,72.56561577563116 149.15017667843495,72.46364231168991 149.37034520250745,72.46364231168991 149.54648002178874,72.4381489391817 149.96480021753814,72.38716218636546 150.38312041317113,72.33617542321736 150.7574069041293,72.23420186569274 150.93354172329418,72.18321507137443 151.32984506664798,72.10673486041196 151.52799673832487,72.03025462607911 151.72614841000177,72.00476120940584 152.10043490084354,71.87729408721498 152.4747213916853,71.77532034278556 152.6728730633622,71.80081378278555 152.8710247350391,71.8263072201662 153.64161456923466,71.87729408721498 154.01590106007643,71.77532034278556 154.19203587935772,71.69884000709862 154.368170698639,71.62235964808497 154.74245718948077,71.52038579968212 154.91859200876206,71.44390538615698 155.07270997553132,71.41841190973355 155.4469964664895,71.31643797819561 156.0634683337994,71.13798349807621 156.61388964392245,71.01051593436569 156.79002446320374,70.98502241377719 157.1863278064411,70.88304830570996 157.384479478118,70.85755477217026 157.60464800230693,70.83206123601121 158.02296819793992,70.78107415602426 158.2211198696168,70.73008706557448 158.8375917369267,70.75558061213815 159.25591193255968,70.62811285356293 159.78431639040355,70.50064503011527 160.15860288124532,70.55163216729125 160.3567545529222,70.52613859997655 160.73104104376398,70.42416430488811 161.25944550149143,70.220215589914 161.63373199256603,70.19472198889707 161.8318836641265,70.19472198889707 162.00801848329138,70.220215589914 162.38230497424956,70.19472198889707 162.55843979353085,70.14373477899062 162.75659146520775,70.0672539446532 163.08684425114188,69.9652794624999 163.59323185647372,69.93978583543503 163.5491981516825,69.93978583543503 163.5271812992869,69.91429220586724 163.5051644470077,69.93978583543503 163.5491981516825,69.88879857357824 163.5271812992869,69.86330493880087 163.5491981516825,69.81231766135897 164.4078553954605,69.68484942225041 164.5839902147418,69.5828747843334 164.91424300079234,69.30244431557367 165.4646643110318,69.09849468639004 165.8609676542692,69.17497581674252 166.25727099762298,69.14948210920556 166.38937211211305,69.17497581674252 166.56550693127792,69.20046952173288 166.4994563740911,69.17497581674252 166.47743952157907,69.09849468639004 166.43340581678785,68.97102608365822 166.78567545535043,68.66510117231519 167.1599619461922,68.48664480118896 167.3801304702647,68.48664480118896 167.5782821419416,68.46115102354088 167.9966023375746,68.43565724330256 168.39290568092838,68.38466967495333 168.98736069595907,68.12973167734162 169.295596629614,67.92578109228634 169.82400108734146,67.72183034098998 170.24232128297444,67.69633648532908 170.44047295465134,67.74732419395878 170.61660777393263,67.77281804436643 170.9688774123788,67.77281804436643 171.14501223166008,67.77281804436643 171.73946724669077,67.69633648532908 172.11375373741612,67.67084262719436 172.28988855681382,67.64534876633843 172.48804022849072,67.64534876633843 172.99442783370614,67.49238554701151 173.63291655352805,67.44139778641693 173.85308507760055,67.41590390224883 174.29342212562915,67.33942223417398 174.66770861658733,67.28843444236554 175.0640119598247,67.05898925103247 175.41628159827087,66.90602567323367 175.61443326994777,66.88053173453955 175.81258494162466,66.85503779318242 176.23090513737407,66.72756804761593 176.60519162821583,66.39614640516811 177.02351182384882,66.19219440702 177.3757814624114,66.11571236488817 178.27847241109703,65.88626609816856 178.6527589019388,65.70780774517334 179.26923076924868,65.58033741515828 179.88570263655856,65.70780774517334 180.28200597991236,65.6058314863476 180.9865452569211,65.09594956874207 181.40486545255408,64.94298479087593 182.08738787728362,64.76452576511656 182.2855395488441,64.76452576511656 182.85797771136276,64.50958407907456 183.23226420220453,64.81551407117513 183.3643653166946,65.47836110433855 183.3643653166946,65.68231368441775 183.3863821690902,65.91176013815857 183.43041587388143,66.34515842121618 183.5625169883715,66.77855595364235 183.62856754555833,67.00800140216597 183.7606686600484,67.49238554701151 184.0028540365165,68.63960741276969 184.13495515089016,69.07300097099505 184.2010057081934,69.27695062101702 184.53125849424396,70.32218996819574 184.57529219903518,70.52613859997655 184.641342756222,71.03600945226208 184.0028540365165,71.41841190973355 183.7606686600484,71.49489233105851 183.21024734992534,71.62235964808497 182.2635226964485,71.69884000709862 182.2635226964485,71.69884000709862 182.21948899165727,71.62235964808497 181.8452025006991,71.52038579968212 181.40486545255408,71.59686618990963 180.39209024200682,71.85180065504392 179.7536015221849,72.00476120940584" stroke="#4dd2ff" stroke-linecap="round" stroke-linejoin="round" stroke-width="0.5"><title>2023-02-06 10.0km</title></polyline><polyline fill="none" points="86.03777128830552,199.82446484500542 86.98308411799371,214.0542663396336 87.61329267174006,216.6083272891119 88.24350122734904,219.8921172611881 91.3945439979434,234.1218390162103 91.70964827388525,245.79746591835283 86.35287556424737,249.0812291263137 80.680998576805,252.36498932354152 60.51432484947145,257.8379162934143 56.733073523268104,259.2973620733246 35.30598268657923,265.5 16.084621787071228,258.93250068323687 17.02993461675942,253.82443733280525 18.29035172611475,250.54067847435363 17.660143172368407,248.3515042285435 17.660143172368407,244.70287751336582 18.6054560020566,241.0542470808141 17.345038894563913,234.48670293274336 17.345038894563913,231.93265473400243 31.839835638180375,205.6623389646411 39.08723401091993,199.45959739712998 44.44400672055781,194.7163171833381 46.01952810585499,193.25684508448467 50.11588370613754,192.16224062023684 53.582030752673745,191.79737239074893 55.15755213983357,191.79737239074893 56.733073523268104,191.79737239074893 60.51432484947145,191.79737239074893 62.72005478665233,191.79737239074893 66.18620183505118,191.06763582024723 73.11849592998624,187.05408202903345 86.35287556424737,202.37853594357148 90.13412689045072,224.63536412850954 93.60027393698692,233.027247042628 94.54558676853776,235.2164306549821 95.49089959822595,237.0407493095845 92.97006538324058,244.70287751336582 91.3945439979434,245.79746591835283 90.13412689045072,246.52719133603387 88.55860550515354,247.62177918408997 87.61329267174006,248.3515042285435 84.46224990300834,250.17581619368866 80.680998576805,250.9055407177657 73.43360020592809,253.45957538555376 65.2408890016377,256.7433315673843 48.85546659864485,262.2162518480327 21.441394494846463,264.40541761694476 19.235664557665586,262.58111290237866 16.714830342680216,257.10819318075664 16.399726064875722,254.55416111508384 15.454413233324885,249.44609151920304 14.509100401774049,242.14883660082705 16.084621787071228,239.59479386662133 15.769517509266734,236.31102195987478 17.02993461675942,221.35157850617543 17.345038894563913,216.24346154998057 22.701811604201794,208.58127245632932 34.99087840877473,201.28393426723778 38.457025457173586,198.72986238845624 43.49869388900697,195.44605300901458 45.07421527430415,194.7163171833381 46.96484093554318,194.35144921392202 48.54036232084036,193.62171316542663 50.11588370613754,193.25684508448467 51.37630081363022,193.25684508448467 53.89713503047824,193.62171316542663 56.41796924546361,192.89197696652263 60.199220571666956,192.89197696652263 62.089846232905984,192.5271088120062 65.55599327944219,191.4325041247066 67.44661894254386,189.9730306873098 69.33724460564554,188.87842521932907 70.59766171313822,188.14868805371225 71.85807882063091,187.4189507421106 74.69401731528342,185.9594756681472 76.58464297652245,185.22973790834658 77.84506008401513,184.5 80.36589430272579,184.864868973149 81.62631140835583,186.68921327893622 81.62631140835583,187.78381941560656 81.94141568616033,189.60816223546863 82.57162423990667,191.4325041247066 82.57162423990667,192.89197696652263 82.57162423990667,194.35144921392202 85.09245845675468,198.36499482765794 85.72266701050103,199.82446484500542 86.66797984205186,201.64880152931437 87.2981883957982,203.4731372857932" stroke="#4dd2ff" stroke-linecap="round" stroke-linejoin="round" stroke-width="0.5"><title>2023-02-01 1.7km</title></polyline></svg>