<?xml version="1.0" encoding="utf-8" ?>
<svg baseProfile="full" height="300mm" version="1.1" viewBox="0,0,200,300" width="200mm" xmlns="http://www.w3.org/2000/svg" xmlns:ev="http://www.w3.org/2001/xml-events" xmlns:xlink="http://www.w3.org/1999/xlink"><defs /><rect fill="#222222" height="300" width="200" x="0" y="0" /><text fill="#FFFFFF" style="font-size:12px; font-family:Arial; font-weight:bold;" x="10" y="20">Over 5km Runs</text><text fill="#FFFFFF" style="font-size:4px; font-family:Arial" x="10" y="280">ATHLETE</text><text fill="#FFFFFF" style="font-size:9px; font-family:Arial" x="10" y="290">Seven</text><text fill="#FFFFFF" style="font-size:4px; font-family:Arial" x="120" y="280">STATISTICS</text><text fill="#FFFFFF" style="font-size:3px; font-family:Arial" x="120" y="285">Number: 4</text><text fill="#FFFFFF" style="font-size:3px; font-family:Arial" x="120" y="290">Weekly: 1.3</text><text fill="#FFFFFF" style="font-size:3px; font-family:Arial" x="141" y="285">Total: 32.8 km</text><text fill="#FFFFFF" style="font-size:3px; font-family:Arial" x="141" y="290">Avg: 8.2 km</text><text fill="#FFFFFF" style="font-size:3px; font-family:Arial" x="167" y="285">Min: 1.7 km</text><text fill="#FFFFFF" style="font-size:3px; font-family:Arial" x="167" y="290">Max: 11.0 km</text><polyline fill="none" points="58.62859922088683,114.0272871889174 61.450843058526516,113.04547835234553 73.14299610257149,104.20918810134754 75.56206225045025,95.86378515744582 76.36841763183475,90.95471656741574 76.36841763183475,82.11837810929865 76.36841763183475,78.19111038092524 76.36841763183475,68.86383426235989 76.36841763183475,64.44564333697781 37.26018158905208,45.79100628569722 34.43793775141239,53.64560078224167 34.03476005978882,57.572892317548394 34.43793775141239,65.42746396036819 34.841115441173315,69.3547440674156 35.24429313465953,74.26383884390816 35.24429313465953,83.59110252326354 35.64747082442045,87.02745741140097 36.45382620766759,96.35469168890268 38.87289235368371,104.20918810134754 46.53326848521829,112.5545738437213 59.03177691064775,114.51819151919335 66.69215304404497,111.57276464998722 73.54617379233241,101.75465960986912 74.75570686534047,94.88197191571817 74.75570686534047,89.48199483007193 74.75570686534047,85.55473424587399 75.15888455696404,77.20929285371676 74.75570686534047,72.79111103573814 74.75570686534047,69.3547440674156 74.75570686534047,61.00926928548142 73.94935148395598,52.663777304347605 70.3207522649318,44.809180901385844 63.86990920640528,39.40913703665137 55.80635538324714,36.463655528612435 44.114202339202166,38.91822360036895 37.26018158905208,45.300093623343855 34.03476005978882,52.663777304347605 34.03476005978882,60.51835846947506 34.43793775141239,65.91837418172508 34.43793775141239,69.3547440674156 34.841115441173315,78.19111038092524 34.841115441173315,83.59110252326354 34.841115441173315,92.4274377701804 35.24429313465953,96.84559816168621 38.06653697229922,103.71828252123669 40.48560311831534,107.15462032705545 50.968223087489605,114.0272871889174 59.03177691064775,114.51819151919335 69.51439688168466,108.13643059274182 74.75570686534047,97.33650457346812 74.75570686534047,88.5001800423488 74.75570686534047,84.57291850447655 74.35252917557955,80.15474472148344 74.75570686534047,72.30020164791495 74.75570686534047,67.88201447203755 75.15888455696404,63.9547329377383 74.35252917557955,51.19104163860902 70.3207522649318,44.31826812028885 60.241309985518456,38.42731010587886 52.9841115437448,37.936396550387144 49.355512322857976,38.42731010587886 38.06653697229922,47.26374391419813 36.05064851604402,52.663777304347605 35.64747082442045,59.04562566196546 35.64747082442045,62.48200138006359 35.24429313465953,80.15474472148344 34.841115441173315,83.10019444441423 35.24429313465953,86.04564202670008 35.24429313465953,89.48199483007193 37.66335928067565,102.7364711840637 42.09831388294697,109.60914554493502 49.758690014481544,113.53638280043378 57.82224383763969,114.51819151919335 65.07944227941334,112.5545738437213 70.3207522649318,108.13643059274182 73.14299610257149,100.77284779492766 73.94935148395598,97.33650457346812 73.94935148395598,79.66383622493595 73.94935148395598,75.24565708544105 73.94935148395598,71.80929219955578 73.94935148395598,62.97291195811704 73.54617379233241,59.04562566196546 41.6951361913234,38.42731010587886 33.631582368165255,52.17286547459662 34.03476005978882,56.591069790534675 34.841115441173315,72.79111103573814 34.841115441173315,76.71838400000706 34.841115441173315,80.64565315656364 35.24429313465953,88.99108746601269 35.64747082442045,94.88197191571817 38.46971466206014,105.19099908182397 43.71102464571595,111.57276464998722 60.241309985518456,115.00909578986466 67.49850842729211,112.06366927688941 74.75570686534047,93.90015843557194 73.94935148395598,89.97290213499218 73.94935148395598,79.66383622493595 74.75570686534047,75.24565708544105 74.35252917557955,71.3183826925233 74.75570686534047,62.48200138006359 70.3207522649318,46.28191888798028 63.063553823158145,38.91822360036895 45.72691310197115,37.445482936222106 37.26018158905208,44.31826812028885 35.64747082442045,48.24556870292872 35.64747082442045,63.9547329377383 35.64747082442045,66.90019444609061 34.43793775141239,75.24565708544105 34.841115441173315,82.11837810929865 34.841115441173315,85.06382640404627 35.24429313465953,88.99108746601269 57.41906614601612,115.00909578986466 72.33664071932435,104.70009362138808 73.54617379233241,100.77284779492766 74.75570686534047,93.40925160702318 74.35252917557955,89.48199483007193 74.35252917557955,85.55473424587399 73.54617379233241,78.19111038092524 74.75570686534047,65.42746396036819 74.35252917557955,61.00926928548142 74.35252917557955,56.591069790534675 70.72392995469272,45.79100628569722 64.67626458778977,39.40913703665137 57.41906614601612,36.954569262918085 48.549156941473484,36.954569262918085 40.88878080993891,40.88187698693946 38.06653697229922,43.82735527912155 33.631582368165255,52.17286547459662 34.03476005978882,59.04562566196546 34.841115441173315,80.64565315656364 34.841115441173315,84.08201054343954 34.43793775141239,88.5001800423488 36.85700389742851,102.2455654265359 45.323735412210226,112.5545738437213 54.59682230837643,114.51819151919335 59.03177691064775,114.51819151919335 69.11121919006109,108.62733563734218 73.14299610257149,101.75465960986912 73.94935148395598,93.40925160702318 73.94935148395598,85.06382640404627 73.94935148395598,81.13656153297052 74.75570686534047,72.79111103573814 73.94935148395598,64.93655367847532 73.94935148395598,60.51835846947506 72.73981841094792,52.663777304347605 66.69215304404497,41.372790183871984 50.56504539772868,36.954569262918085 43.307846957817674,39.90005041286349 40.08242542669177,41.86370332259685 34.43793775141239,49.71830543829128 34.43793775141239,57.08198108430952 34.43793775141239,62.48200138006359 34.841115441173315,71.80929219955578 34.43793775141239,74.75474799517542 34.43793775141239,87.02745741140097 34.841115441173315,91.44562369491905 52.9841115437448,114.0272871889174 69.91757457144558,109.11824062094092 73.94935148395598,102.2455654265359 75.15888455696404,94.88197191571817 75.15888455696404,90.95471656741574 74.35252917557955,87.02745741140097 74.35252917557955,75.73656611749902 74.75570686534047,72.30020164791495 74.75570686534047,68.37292439723387 74.75570686534047,60.02744759200141 74.35252917557955,56.10015843855217 72.33664071932435,48.73648100718856 63.063553823158145,38.91822360036895 55.80635538324714,36.954569262918085 45.72691310197115,38.42731010587886 42.50149157457054,40.39096372993663 34.03476005978882,53.1546890726313 34.03476005978882,65.42746396036819 33.631582368165255,70.82747312495485 38.46971466206014,105.19099908182397 49.758690014481544,113.53638280043378 54.19364461675286,114.0272871889174 63.063553823158145,113.04547835234553 74.35252917557955,102.2455654265359 74.75570686534047,97.82741092750803 73.94935148395598,86.04564202670008 73.94935148395598,81.62746985210106 73.94935148395598,77.20929285371676 73.94935148395598,69.3547440674156 73.54617379233241,65.42746396036819 73.94935148395598,61.00926928548142 72.33664071932435,49.227393253706396 54.19364461675286,36.954569262918085 44.92055772058666,38.91822360036895 36.05064851604402,46.77283143112436 33.631582368165255,53.64560078224167 34.03476005978882,57.08198108430952 34.03476005978882,61.500180043280125 33.631582368165255,70.82747312495485 34.03476005978882,78.682019055821 34.03476005978882,91.44562369491905 34.841115441173315,95.86378515744582 43.71102464571595,111.57276464998722 51.77457847073674,114.51819151919335 56.61271076463163,115.00909578986466 70.72392995469272,107.15462032705545 73.14299610257149,99.7910357429646 73.94935148395598,76.22747508902103 73.54617379233241,67.88201447203755 73.94935148395598,63.4638224770315 37.26018158905208,45.79100628569722 34.841115441173315,54.627424023114145 34.841115441173315,60.02744759200141 34.03476005978882,69.845653812401 34.43793775141239,74.75474799517542 34.43793775141239,78.682019055821 34.43793775141239,88.5001800423488 34.03476005978882,92.4274377701804 36.05064851604402,101.26375373173505 38.46971466206014,105.19099908182397 59.83813229203224,113.53638280043378 71.12710764631629,106.66371510503814 74.35252917557955,97.82741092750803 74.35252917557955,91.93653076281771 73.94935148395598,80.64565315656364 73.94935148395598,74.26383884390816 74.35252917557955,60.02744759200141 70.3207522649318,47.75465633766726 35.64747082442045,54.627424023114145 35.24429313465953,60.02744759200141 34.43793775141239,71.80929219955578 34.43793775141239,77.20929285371676 34.841115441173315,89.97290213499218 34.841115441173315,95.37287856684998 39.27607004344463,107.15462032705545 50.16186770610511,113.53638280043378 58.22542152926326,114.51819151919335 65.48261996917427,111.08185996254906 71.12710764631629,105.68190448218957 74.35252917557955,88.5001800423488 74.35252917557955,84.08201054343954 74.35252917557955,80.15474472148344 74.35252917557955,68.37292439723387 74.35252917557955,62.97291195811704 70.72392995469272,47.26374391419813 57.41906614601612,37.936396550387144 50.16186770610511,37.936396550387144 40.08242542669177,43.336442379746586 34.841115441173315,52.663777304347605 34.43793775141239,56.591069790534675 34.43793775141239,64.44564333697781 34.841115441173315,67.88201447203755 34.841115441173315,71.80929219955578 35.24429313465953,79.66383622493595 34.841115441173315,83.59110252326354 35.24429313465953,88.00927255768329 36.05064851604402,97.33650457346812 38.46971466206014,105.68190448218957 50.56504539772868,114.51819151919335 64.2730868961662,112.5545738437213 74.35252917557955,91.93653076281771 73.94935148395598,87.02745741140097 73.94935148395598,76.71838400000706 73.54617379233241,71.3183826925233 73.14299610257149,61.00926928548142 70.72392995469272,46.28191888798028 56.20953307300806,37.445482936222106 44.92055772058666,39.90005041286349 38.87289235368371,45.79100628569722 37.26018158905208,49.227393253706396 35.24429313465953,61.00926928548142 34.841115441173315,66.40928434347734 35.24429313465953,74.26383884390816 35.24429313465953,78.682019055821 36.45382620766759,100.2819417999126 57.41906614601612,114.51819151919335 68.3048638086766,110.10005041072145 73.14299610257149,101.75465960986912 73.94935148395598,81.62746985210106 74.35252917557955,73.28202036488801 73.94935148395598,65.42746396036819 73.14299610257149,56.591069790534675 71.53028533607721,48.24556870292872 69.51439688168466,44.31826812028885 56.20953307300806,35.97274173703045 48.549156941473484,36.954569262918085 37.26018158905208,45.79100628569722 36.85700389742851,49.227393253706396 36.45382620766759,57.08198108430952 35.24429313465953,65.91837418172508 35.24429313465953,69.845653812401 35.64747082442045,77.20929285371676 35.64747082442045,80.64565315656364 36.05064851604402,95.37287856684998 37.66335928067565,103.22737688291818 49.355512322857976,114.0272871889174 59.434954604133964,115.00909578986466 72.73981841094792,102.2455654265359 75.15888455696404,93.40925160702318 74.35252917557955,80.15474472148344 74.35252917557955,76.71838400000706 74.35252917557955,72.30020164791495 73.94935148395598,64.93655367847532 73.94935148395598,60.02744759200141 74.35252917557955,57.08198108430952 57.0158884562552,34.5 52.9841115437448,34.5 46.9364461787045,36.954569262918085 40.88878080993891,41.372790183871984 37.26018158905208,47.26374391419813 35.64747082442045,56.10015843855217 35.64747082442045,66.90019444609061 36.45382620766759,76.71838400000706 35.64747082442045,87.51836501341313 46.53326848521829,112.5545738437213 59.434954604133964,114.0272871889174 68.70804150030017,108.62733563734218 74.75570686534047,94.88197191571817 74.35252917557955,90.95471656741574 73.54617379233241,87.02745741140097 73.54617379233241,79.17292766971514 73.54617379233241,70.82747312495485 73.94935148395598,59.536536656320095 73.54617379233241,55.60924702696502 69.91757457144558,43.82735527912155 59.83813229203224,35.97274173703045 52.58093385398388,35.97274173703045 46.9364461787045,36.954569262918085 40.88878080993891,41.86370332259685 38.87289235368371,45.300093623343855 36.05064851604402,52.663777304347605 36.05064851604402,64.44564333697781 36.05064851604402,72.30020164791495 36.05064851604402,75.73656611749902 36.05064851604402,79.66383622493595 35.24429313465953,88.00927255768329 35.24429313465953,91.93653076281771 36.05064851604402,99.30012962920591 39.27607004344463,107.15462032705545 44.517380030825734,112.5545738437213 51.37140078097582,115.00909578986466 59.83813229203224,114.0272871889174 70.3207522649318,108.62733563734218 75.15888455696404,97.82741092750803 73.54617379233241,84.57291850447655 73.54617379233241,81.13656153297052 73.14299610257149,77.20929285371676 73.54617379233241,65.91837418172508 73.94935148395598,61.00926928548142 60.241309985518456,37.936396550387144 53.38728923536837,36.954569262918085 45.323735412210226,39.40913703665137 39.67924773693085,43.82735527912155 35.24429313465953,56.10015843855217 35.64747082442045,75.73656611749902 36.45382620766759,87.51836501341313 36.45382620766759,95.86378515744582 38.06653697229922,103.71828252123669 54.19364461675286,115.00909578986466 65.88579766079783,111.08185996254906 68.70804150030017,108.62733563734218 73.54617379233241,101.26375373173505 74.35252917557955,91.44562369491905 74.35252917557955,86.04564202670008 73.94935148395598,73.77292963443324 73.94935148395598,68.86383426235989 65.48261996917427,40.39096372993663 55.40317768976092,36.463655528612435 47.74280156008899,37.936396550387144 40.88878080993891,42.35461640218273 38.06653697229922,49.227393253706396 36.85700389742851,59.04562566196546 36.05064851604402,66.90019444609061 36.45382620766759,71.3183826925233 35.64747082442045,80.15474472148344 35.64747082442045,83.59110252326354 36.05064851604402,92.4274377701804 38.87289235368371,105.19099908182397 53.79046692699194,115.5 61.450843058526516,114.51819151919335 67.90168611519039,110.10005041072145 70.3207522649318,106.66371510503814 73.94935148395598,98.80922345491126 74.35252917557955,91.93653076281771 73.94935148395598,87.51836501341313 73.14299610257149,83.10019444441423 73.54617379233241,75.73656611749902 74.35252917557955,71.80929219955578 74.35252917557955,67.88201447203755 73.94935148395598,60.02744759200141 74.35252917557955,55.60924702696502 71.93346302956343,47.26374391419813 50.16186770610511,35.97274173703045 44.517380030825734,38.91822360036895 38.06653697229922,46.77283143112436 35.64747082442045,53.64560078224167 35.24429313465953,57.572892317548394 35.24429313465953,61.500180043280125 35.24429313465953,69.845653812401 35.24429313465953,73.77292963443324 36.45382620766759,84.57291850447655 36.45382620766759,88.00927255768329 50.16186770610511,113.04547835234553 57.82224383763969,113.53638280043378 67.90168611519039,108.62733563734218 70.3207522649318,106.17280982248485 73.54617379233241,99.7910357429646 74.35252917557955,91.44562369491905 74.35252917557955,87.51836501341313 73.94935148395598,84.08201054343954 74.75570686534047,76.22747508902103 73.54617379233241,62.48200138006359 73.94935148395598,58.554714606143534 73.14299610257149,51.19104163860902 71.53028533607721,47.26374391419813 67.0953307338059,39.40913703665137 59.83813229203224,35.48182788351551 56.20953307300806,34.990913971327245 49.355512322857976,35.97274173703045 42.50149157457054,40.88187698693946 38.87289235368371,47.75465633766726 36.85700389742851,57.08198108430952 36.05064851604402,73.28202036488801 36.05064851604402,77.70020164642483 40.88878080993891,106.66371510503814 47.74280156008899,112.06366927688941 60.241309985518456,114.0272871889174 67.90168611519039,110.59095521597192 74.35252917557955,98.80922345491126 74.35252917557955,94.39106520591304 73.54617379233241,79.17292766971514 74.35252917557955,75.24565708544105 74.35252917557955,59.536536656320095 71.12710764631629,46.28191888798028 61.04766536690295,36.954569262918085 45.323735412210226,39.90005041286349 36.45382620766759,59.536536656320095 36.05064851604402,72.79111103573814 36.05064851604402,79.17292766971514 35.64747082442045,90.95471656741574 43.307846957817674,108.62733563734218 57.0158884562552,114.51819151919335 69.11121919006109,109.60914554493502 74.35252917557955,98.31831722147763 73.94935148395598,92.91834471793845 74.35252917557955,74.26383884390816 73.94935148395598,69.3547440674156 73.94935148395598,60.51835846947506 71.12710764631629,45.79100628569722 54.19364461675286,35.97274173703045 35.64747082442045,68.86383426235989 36.05064851604402,100.2819417999126 36.85700389742851,102.7364711840637" stroke="#4dd2ff" stroke-linecap="round" stroke-linejoin="round" stroke-width="0.5"><title>2023-03-17 10.1km</title></polyline><polyline fill="none" points="178.62320078071207,75.73257243358239 178.03037326189224,75.2749466747191 178.05013417918235,74.63426904568041 178.0106123444857,74.10799676894385 177.91180775803514,73.51307879711385 177.89204684074502,73.23850074013171 177.79324225429446,72.68934361910215 177.77348133688793,72.43764615651162 178.06989509635605,71.81984209782968 178.28726518666372,71.705433752315 178.9393754574703,71.33932665493921 179.37411563796923,71.15627288245014 179.611246645567,71.06474594022438 180.3819224202307,70.95033721002983 180.87594535259996,70.85881018395594 181.09331544290762,70.74440134878387 181.48853378882632,70.5384652986977 181.94303488661535,70.88169194402872 182.0023176384857,71.29356322580134 182.06160039035603,71.68255207617767 182.1406440596329,72.0944218893419 182.23944864608347,72.43764615651162 182.33825323265046,72.98680389304354 182.35801414982416,73.19273769804568 182.43705781910103,73.35290830471786 182.49634057097137,73.74189358818694 182.5556233227253,73.92494525312213 182.29873139795382,74.56562490557553 182.0023176384857,74.7257945331221 181.8639912174549,74.84020134003367 181.50829470600002,75.00037077175512 181.17235911206808,75.11477743882278 180.7969016834395,75.22918404744996 180.6585752622923,75.34359059795679 180.30287875095382,75.45799709009589 180.1447914125165,75.50375967068248 179.9867040741956,75.59528480381414 179.611246645567,75.70969116773631 179.37411563796923,75.73257243358239 179.01841912674718,75.84697872759716 178.50463527697138,75.98426620343525 177.8525250061648,75.45799709009589 177.8722859234549,74.84020134003367 177.81300317158457,74.4969807446032 177.77348133688793,74.1308781978878 177.81300317158457,73.78765651842696 177.75372041971423,73.60460474152933 177.7339595023077,73.42155281548912 177.71419858501758,73.05544851568993 177.69443766784389,72.66646204328572 177.61539399856701,72.32323812572577 177.81300317158457,72.00289532939496 178.14893876563292,71.77407876656798 178.32678702136036,71.705433752315 178.48487435968127,71.6139070338977 178.82080995372962,71.43085348526074 178.97889729205053,71.36220836600114 179.15674554777797,71.27068150776904 179.69029031472746,71.0876276793133 180.1250304953428,71.04186419887992 180.50048792397138,70.97321896076028 181.09331544290762,70.74440134878387 181.25140278122853,70.67575601975841 181.42925103683956,70.60711066970543 181.94303488661535,70.62999245538958 182.1406440596329,71.29356322580134 182.1208831423428,71.75119709750288 182.1406440596329,72.18594841181766 182.18016589409672,72.57493571654777 182.21968772879336,72.9639223475242 182.23944864608347,73.14697464657365 182.2592095633736,73.33002679646597 182.37777506711427,73.67324917532096 182.51610148814507,74.01647102966672 182.5556233227253,74.19952247089532 182.71371066127904,74.56562490557553 182.8125152477296,74.7257945331221 183.14845084166154,74.84020134003367 183.30653818009887,74.74867589920177 183.44486460124608,74.63426904568041 183.78080019529443,74.42833656251605 183.93888753361534,74.33681095381326 185.00597706763074,75.25206536226324 185.00597706763074,75.66392862914654 185.00597706763074,75.84697872759716 185.02573798492085,76.03002867681789 185.06525981950108,76.41900932349381 185.0850207369076,76.60205880647118 185.1047816540813,76.76222698166384 185.18382532335818,77.26561193171074 185.2233471579384,77.44866072466539 185.24310807522852,77.63170936847746 185.32215174438898,77.97492517346109 185.3419126616791,78.15797338835546 185.3616735789692,78.36390245171788 185.44071724824607,78.70711713783385 185.44071724824607,78.89016475598328 185.5,79.07321222500468 185.30239082698245,79.50794936584134 184.9466943157604,79.59947286716488 184.76884606003296,79.59947286716488 184.4131495486945,79.66811546876852 184.23530129308347,79.66811546876852 183.93888753361534,79.82828145747771 183.78080019529443,79.94268566527171 183.6227128568571,80.03420898945478 183.10892900719773,80.28589793879655 182.71371066127904,80.33165953563002 182.5358624055516,80.33165953563002 182.37777506711427,80.35454033051792 182.06160039035603,80.42318270135729 181.90351305203512,80.46894427025109 181.607099292567,80.62910968787037 181.36996828508563,80.81215573960799 181.25140278122853,80.9494401805132 181.15259819477797,81.08672453754116 180.83642351801973,81.22400881063368 180.5400097584352,81.31553161272313 180.20407416450325,81.40705437753059 180.04598682606593,81.45281574594264 179.88789948774502,81.52145778108388 179.53220297640655,81.61298046199954 179.37411563796923,81.70450310561864 179.1962673823582,81.75026441339287 178.84057087101974,81.84178700105986 178.6627226154087,81.91042891734105 178.48487435968127,81.95619018324942 178.1291778483428,82.09347392492054 177.75372041971423,82.16211576420756 177.5758721639868,82.20787697884953 177.2004147353582,82.29939938000462 177.00280556234065,82.36804115648556 176.80519638943952,82.4138023291016 175.8566723591648,82.45956349236076 175.48121493053623,82.4138023291016 175.52073676511645,82.4138023291016 175.52073676511645,82.39092174396501 175.52073676511645,82.39092174396501 175.52073676511645,82.4138023291016 175.54049768240657,82.39092174396501 175.54049768240657,82.39092174396501 175.54049768240657,82.39092174396501 175.52073676511645,82.36804115648556 175.54049768240657,82.36804115648556 175.54049768240657,82.36804115648556 175.54049768240657,82.39092174396501 175.54049768240657,82.4138023291016 175.56025859969668,82.39092174396501 175.56025859969668,82.39092174396501 175.40217126137577,82.4138023291016 174.94767016358674,82.45956349236076 174.59197365213186,82.84853300411487 174.17699438892305,83.14597982320993 173.9793852160219,83.1688603314833 173.82129787758458,83.21462134088506 173.62368870456703,83.14597982320993 173.54464503540657,82.8256524632161 173.60392778727692,83.03157724709308 173.50512320082635,83.23750184218807 172.87277384730987,83.32902382384054 172.39851183223072,83.39766528557811 172.12185899005271,83.44342624844285 171.74640156142414,83.53494814617443 171.52903147123288,83.55782861480839 171.35118321550544,83.62647000668221 170.97572578676045,83.67223092287895 170.77811661397573,83.69511137751397 170.58050744084176,83.74087227974087 170.16552817774937,83.80951361569169 169.9679190047318,83.8323940563132 169.79007074900437,83.85527449466463 169.39485240308568,83.92391579563264 169.19724323018454,83.96967665122065 168.64393754582852,83.8323940563132 168.4858502073912,83.74087227974087 168.30800195178017,83.62647000668221 167.99182727502193,83.60358954501862 167.6756525982637,83.69511137751397 167.31995608692523,83.78663317274186 167.16186874860432,83.85527449466463 166.98402049287688,83.90103536426614 166.70736765069887,84.10695916225086 166.5888021469582,84.22136119061906 166.29238838737365,84.42728469490248 165.9366918761516,84.49592582104378 165.73908270313405,84.51880619180156 165.5414735301165,84.54168656023103 165.02768968045712,84.61032765131677 164.79055867285933,84.65608836713363 164.3360575750703,84.63320801043301 163.96060014644172,84.65608836713363 163.74323005613405,84.67896872154961 163.05159795074724,84.83913113712333 162.89351061242633,84.81625079906371 162.71566235669889,84.81625079906371 162.37972676276695,84.77049011590134 161.86594291299116,84.83913113712333 161.74737740913406,84.93065246620972 161.45096364966594,85.09081470230012 161.11502805561759,85.11369501239096 160.75933154427912,85.13657532022626 160.56172237137798,85.29673740948783 160.36411319847684,85.43401910936518 160.1665040254593,85.43401910936518 159.98865576973185,85.43401910936518 159.63295925839338,85.47977965742757 159.45511100266594,85.5026599279081 159.2575018297648,85.52554019604577 158.50658697262406,85.70858225750271 158.0520858746022,85.77722299215384 157.61734569410328,85.86874393891776 157.3999756037956,85.89162416983163 156.90595267142635,85.80010323226452 156.78738716768567,85.73146250468562 156.66882166382857,85.66282175613742 156.07599414500874,85.63994150189683 155.6214930472197,85.86874393891776 155.26579653576482,85.93738462455804 155.0879482801538,85.96026484839967 154.71249085152522,85.98314506998577 154.51488167850766,86.0060252892581 154.33703342289664,86.0060252892581 153.96157599415164,86.02890550611482 153.7837277384242,86.02890550611482 153.40827030991204,86.12042635043326 153.23042205430102,86.1433065556339 153.05257379857358,86.21194715741149 152.71663820452522,86.34922829800053 152.5585508660879,86.44074901171552 151.84715784352738,86.62379032737226 150.20700170786586,86.53226968817762 150.04891436942853,86.53226968817762 149.7525006099604,86.57803001237335 149.6141741889296,86.64667048132105 149.43632593320217,86.71531092922669 149.13991217373405,86.87547189279576 148.98182483541314,86.94411227083765 148.8237374969758,87.01275262785202 148.46804098575376,87.08139296394074 148.30995364720002,87.1042730712943 147.93449621857144,87.15003327900195 147.75664796296041,87.15003327900195 147.5787997073494,87.1271531763341 147.22310319601092,87.1271531763341 146.9069285192527,87.26443375753297 146.76860209810548,87.33307401667116 146.412905586767,87.4245943295391 146.2548182484461,87.47035447203962 145.89912173699122,87.53899466829898 145.7212734813802,87.5618747290282 145.54342522576917,87.5618747290282 145.1877287144307,87.58475478745822 145.00988045870326,87.51611460518325 144.85179312038235,87.51611460518325 144.0020736765582,87.9050753605552 143.86374725552741,87.9050753605552 143.68589899979997,87.9050753605552 143.3302024884615,87.9050753605552 143.15235423273407,87.9050753605552 142.97450597712304,87.88219533475058 142.618809465901,87.88219533475058 142.26311295444611,87.8593153066322 142.1050256160088,87.8593153066322 141.90741644310765,87.83643527621462 141.55171993176918,87.76779517086106 141.39363259333186,87.76779517086106 141.21578433772083,87.76779517086106 140.86008782638237,87.76779517086106 140.68223957065493,87.74491513110115 140.5043913150439,87.72203508896928 140.16845572099555,87.33307401667116 140.03012929996476,87.28731384626008 139.7139546230901,87.24155366652121 139.39777994633187,87.28731384626008 139.08160526957363,87.3559540983988 138.92351793125272,87.37883417782723 138.6271041717846,87.3559540983988 138.42949499888346,87.28731384626008 138.27140766044613,87.26443375753297 137.87618931452744,87.15003327900195 137.7181019760901,87.15003327900195 137.40192729933187,87.15003327900195 137.1647962917341,87.21867357309384 136.98694803612307,87.24155366652121 136.65101244207472,87.26443375753297 136.45340326917358,87.24155366652121 136.27555501344614,87.21867357309384 135.91985850210767,87.15003327900195 135.36655281775165,87.08139296394074 134.29946328385267,87.05851285424433 134.12161502824165,87.05851285424433 133.6473530130461,87.01275262785202 133.15333008067682,86.96699239221925 133.0150036595296,86.94411227083765 132.85691632109229,86.94411227083765 132.54074164433405,86.96699239221925 132.40241522330325,87.01275262785202 132.2245669675758,87.0356327421905 131.71078311780002,87.0356327421905 131.5526957794791,87.01275262785202 131.4143693584483,86.96699239221925 131.07843376439996,86.85259176217369 130.90058550878894,86.82971162919421 130.66345450119115,86.80683149384276 130.30775798973627,86.80683149384276 130.12990973412525,86.80683149384276 129.97182239580434,86.82971162919421 129.61612588434946,86.82971162919421 129.43827762885485,86.78395135620667 129.2604293731274,86.73819107390591 128.94425469625276,86.66955063299974 128.0550134179648,86.60091017108061 127.87716516223736,86.57803001237335 127.54122956830543,86.69243078229192 127.20529397414066,86.80683149384276 127.04720663581975,86.80683149384276 126.67174920719117,86.80683149384276 126.51366186887026,86.78395135620667 126.3160526958527,86.76107121625682 126.01963893638458,86.66955063299974 125.84179068077356,86.62379032737226 125.34776774828788,86.64667048132105 125.18968040996697,86.71531092922669 124.85374481591862,86.78395135620667 124.67589656019118,86.78395135620667 124.3202000487363,86.76107121625682 124.16211271041539,86.76107121625682 123.98426445468795,86.76107121625682 123.39143693586811,86.71531092922669 123.15430592827033,86.69243078229192 122.97645767265931,86.69243078229192 122.58123932674062,86.66955063299974 121.8896072213538,86.34922829800053 121.73151988291647,86.28058773816156 121.3560624542879,86.23482735331345 121.00036594294943,86.28058773816156 120.44706025859341,86.3034679271077 120.11112466454506,86.25770754687255 119.93327640893403,86.23482735331345 119.75542815332301,86.18906695913756 119.32068797270767,86.16618675857899 119.18236155167688,86.21194715741149 118.98475237877574,86.21194715741149 118.64881678461097,86.25770754687255 118.45120761170983,86.28058773816156 118.07575018296484,86.3034679271077 117.75957550632302,86.28058773816156 117.6014881680021,86.23482735331345 117.42363991227467,86.16618675857899 117.12722615280654,86.09754614280246 116.9493778970791,86.0746659329161 116.61344230303075,86.051785720716 116.37631129554939,86.02890550611482 116.19846303993836,86.02890550611482 115.84276652848348,86.051785720716 115.62539643829223,86.0746659329161 115.44754818256479,86.09754614280246 115.11161258851644,86.09754614280246 114.71639424259774,86.051785720716 114.5385459868703,86.0060252892581 114.36069773114286,85.98314506998577 114.0050012198044,85.91450439837354 113.84691388148349,85.93738462455804 113.66906562587246,85.91450439837354 113.17504269338679,86.02890550611482 112.87862893391866,86.16618675857899 112.7995852647582,86.1433065556339 112.7798243474681,86.12042635043326 112.7798243474681,86.12042635043326 112.7995852647582,86.12042635043326 112.7995852647582,86.12042635043326 112.7995852647582,86.12042635043326 112.7798243474681,86.12042635043326 112.74030251288787,86.12042635043326 112.7798243474681,86.1433065556339 112.74030251288787,86.16618675857899 112.7798243474681,86.1433065556339 112.76006343017798,86.1433065556339 112.74030251288787,86.16618675857899 112.76006343017798,86.16618675857899 112.76006343017798,86.21194715741149 112.7798243474681,86.21194715741149 112.7798243474681,86.21194715741149 112.7798243474681,86.21194715741149 112.7798243474681,86.21194715741149 112.7798243474681,86.21194715741149 112.81934618204832,86.16618675857899 112.81934618204832,86.16618675857899 112.7798243474681,86.21194715741149 112.7798243474681,86.21194715741149 112.6414979264373,86.18906695913756 112.44388875341974,86.18906695913756 112.06843132479116,86.25770754687255 111.83130031719338,86.32634811368189 111.00134179077577,86.18906695913756 110.7839717004681,86.18906695913756 110.3689924372593,86.18906695913756 110.17138326435816,86.21194715741149 109.77616491843946,86.3034679271077 109.40070748969447,86.39498865949281 109.1833373993868,86.44074901171552 109.00548914365936,86.46362918436353 108.61027079774067,86.48650935461046 108.43242254201323,86.48650935461046 108.21505245182198,86.48650935461046 107.85935594048351,86.57803001237335 107.50365942914505,86.69243078229192 107.34557209082413,86.73819107390591 107.14796291780658,86.76107121625682 105.70541595516261,87.37883417782723 105.48804586497135,87.4017142548546 105.32995852653403,87.44747440199717 104.91497926332522,87.51611460518325 104.71737009030767,87.53899466829898 104.5,87.47035447203962 104.55928275187034,87.31019393262977 104.63832642114721,87.15003327900195 104.67784825572744,87.01275262785202 104.73713100759778,86.82971162919421 104.85569651145488,86.5093895225873 104.93474018061534,86.34922829800053 105.07306660164613,85.86874393891776 105.09282751905266,85.84586370574834 105.07306660164613,85.91450439837354 104.93474018061534,85.96026484839967 104.89521834603511,85.98314506998577 104.71737009030767,85.96026484839967 104.71737009030767,85.80010323226452 104.75689192500431,85.70858225750271 104.81617467687465,85.59418098660535 104.93474018061534,85.2509768242162 104.99402293248568,85.04505407506076 105.05330568435602,84.90777213740512 105.19163210550323,84.47304544803046 105.34971944382414,84.12983957256074 105.72517687256914,83.1688603314833 105.70541595516261,82.77989137449185 105.64613320329227,82.59684692636074 105.62637228588574,82.20787697884953 105.64613320329227,82.0477126869664 105.58685045142192,81.49857710507058 105.70541595516261,81.10960525552218 105.76469870703295,80.903678709612 105.84374237630982,80.46894427025109 105.94254696276039,80.05708981465432 106.12039521837141,79.69099633132282 106.19943888753187,79.50794936584134 106.39704806066584,78.91304569781641 106.47609172970988,78.75287905636651 106.53537448158022,78.56983132637106 106.79226640646812,77.97492517346109 106.87131007562857,77.83763891436683 106.95035374490544,77.6088282961282 107.20724566967692,77.21984971009078 107.54318126372527,76.83087045041611 107.68150768487249,76.62493998138234 108.53122712869663,76.14443481925991 109.20309831679333,76.23595969128655 109.87496950489003,76.46477170825528 110.09233959508128,76.51053408365988 110.42827518912964,76.55629644969304 110.60612344485708,76.53341526782606 110.96181995607913,76.48765289715084 111.11990729451645,76.44189051701687 111.31751646741759,76.35036572895478 111.67321297887247,76.30460332083749 111.8510612344835,76.30460332083749 112.00914857292082,76.28172211333003 112.32532324967906,76.21307847680873 112.50317150529008,76.21307847680873 112.97743352048565,76.16731604079541 113.13552085880656,76.12155359542521 113.313369114534,76.07579114077089 113.66906562587246,75.98426620343525 114.14332764095161,75.9385037207976 114.34093681396917,75.86985997937154 114.49902415229008,75.82409747342172 114.81519882904831,75.70969116773631 115.13137350580655,75.64104735640285 115.48707001714502,75.57240352405643 115.64515735546593,75.54952224189765 115.88228836306371,75.50375967068248 116.2775067089824,75.43511579636834 116.45535496470984,75.389353201841 116.61344230303075,75.36647190102667 116.96913881436922,75.3207092925004 117.12722615280654,75.2749466747191 117.40387899486814,75.20630273041024 117.70029275445268,75.11477743882278 117.8781410100637,75.04613344556128 118.03622834838461,75.00037077175512 118.37216394243296,75.00037077175512 118.53025128087029,75.02325210979325 118.6883386191912,75.04613344556128 119.16260063438676,75.09189611005422 119.32068797270767,75.06901477892825 119.55781898030546,74.81731998336909 119.55781898030546,74.47409935288306 119.55781898030546,74.4969807446032 119.55781898030546,74.51986213392229 119.55781898030546,74.4969807446032 119.57757989759557,74.4969807446032 119.57757989759557,74.4969807446032 119.63686264946591,74.4969807446032 119.77518907049671,74.47409935288306 120.01232007809449,74.35969235953235 119.91351549164392,74.17664104886353 119.85423273977358,73.94782670077984 119.73566723591648,73.58172325896157 119.59734081488568,73.14697464657365 119.57757989759557,72.9639223475242 119.55781898030546,72.78086989923031 119.478775311145,72.41476455504016 119.43925347644836,72.23171165911481 119.39973164198454,72.07154025281488 119.30092705553398,71.68255207617767 119.2218833862571,71.5223802781984 119.16260063438676,71.1333911504189 119.12307879980654,70.95033721002983 119.08355696522631,70.74440134878387 119.41949255927466,70.19523812891566 119.57757989759557,70.19523812891566 119.87399365706369,70.2410017818911 120.0320809953846,70.21811995655298 120.17040741653182,70.19523812891566 120.32849475485273,70.21811995655298 120.86203952191863,70.19523812891566 121.05964869481977,70.19523812891566 121.2177360332571,70.19523812891566 121.55367162730545,70.14947446664155 121.73151988291647,70.12659263197565 121.90936813864391,70.10371079506876 122.24530373257585,70.03506527013087 122.42315198830329,70.03506527013087 122.60100024403073,70.03506527013087 122.97645767265931,69.96641972425277 123.15430592827033,69.92065601533977 123.371676018578,69.89777415743447 123.76689436461311,69.87489229711355 124.16211271041539,69.92065601533977 124.33996096614283,69.94353787101863 125.32800683111418,69.78336483267776 125.3872895828681,69.80624670232646 125.54537692130543,69.82912856961775 125.60465967317577,69.85201043453708 125.66394242504612,69.85201043453708 125.86155159794725,69.87489229711355 126.0393998536747,69.82912856961775 126.11844352295157,69.76048296077352 126.1974871919956,69.71471920989279 126.29629177856259,69.64607356609486 126.37533544772305,69.5545460083813 126.43461819959339,69.50878221556195 126.61246645532083,69.44013650882698 126.79031471104827,69.41725460188172 126.88911929749884,69.44013650882698 126.96816296665929,69.44013650882698 127.08672847039998,69.44013650882698 127.18553305696696,69.44013650882698 127.34362039528787,69.48590031560161 127.42266406444833,69.53166411317943 127.5214686508989,69.5545460083813 127.67955598933622,69.64607356609486 127.79812149319332,69.64607356609486 127.91668699681759,69.64607356609486 127.99573066609446,69.64607356609486 128.09453525254503,69.64607356609486 128.3119053428527,69.62319168013346 128.41070992930327,69.60030979191652 128.50951451575384,69.5774279012985 128.6083191022044,69.53166411317943 128.7268846060615,69.53166411317943 128.82568919251207,69.50878221556195 129.08258111739997,69.46301841338573 129.2604293731274,69.46301841338573 129.45803854602855,69.44013650882698 129.85325689194724,69.39437269268092 130.0508660649648,69.37149078110815 130.24847523786593,69.37149078110815 130.68321541836485,69.32572695093404 131.05867284710985,69.32572695093404 131.2562820201274,69.34860886719252 131.4143693584483,69.37149078110815 131.7898267870769,69.39437269268092 132.00719687738456,69.37149078110815 132.38265430589672,69.3028450323909 132.75811173464172,69.27996311146126 132.95572090754285,69.2570811882324 133.1335691632703,69.2570811882324 133.5485484264791,69.18843540456146 133.90424493781757,69.16555347200483 134.12161502824165,69.142671537149 134.3192242011428,69.142671537149 134.99109538912307,69.142671537149 135.08989997557364,69.18843540456146 135.10966089298017,69.18843540456146 135.2875091487076,69.18843540456146 135.44559648702852,69.18843540456146 135.8210539156571,69.142671537149 135.99890217126813,69.1197895998921 136.15698950970545,69.1197895998921 136.71029519406147,69.18843540456146 136.8881434496725,69.21131733483344 137.06599170528352,69.23419926270435 137.44144913402852,69.2570811882324 137.8169065626571,69.23419926270435 137.99475481838454,69.21131733483344 138.17260307399556,69.18843540456146 138.54806050262414,69.142671537149 138.72590875823516,69.1197895998921 139.10136618698016,68.95961597407586 139.4175408637384,68.82232420389482 139.59538911934942,68.77656026184559 139.91156379610766,68.75367828736489 140.04989021713845,68.79944223401253 140.18821663828567,68.84520617140515 140.34630397660658,68.89097009948455 141.33434984146152,68.93673401823617 141.55171993176918,68.91385206003906 141.69004635279998,68.91385206003906 142.16430836799555,68.77656026184559 142.30263478902634,68.68503234976379 142.46072212734725,68.57062240720552 143.1918760674307,68.13586409389973 143.88350817281753,67.95280771014222 144.19968284957577,67.86127946230408 144.35777018789668,67.83839739454561 144.515857526334,67.76975117716938 144.85179312038235,67.7011049388384 145.00988045870326,67.7011049388384 145.48414247389883,67.90704359089432 145.93864357168786,68.02145387150813 146.07696999271866,67.99857182006235 146.2745791657362,67.95280771014222 146.61051475966815,67.90704359089432 146.7883630153956,67.81551532444428 146.9266894365428,67.74686910006858 147.26262503047474,67.58669449502486 147.5985606245231,67.51804820075631 147.77640888025053,67.49516609797138 147.95425713597797,67.4494018854457 148.30995364720002,67.51804820075631 148.685411075945,67.56381239921029 148.84349841426592,67.60957658843836 149.00158575258683,67.60957658843836 149.3177604294615,67.58669449502486 149.4956086850725,67.58669449502486 149.65369602350984,67.60957658843836 149.9896316175582,67.58669449502486 150.1477189558791,67.58669449502486 150.30580629431643,67.56381239921029 150.62198097107466,67.49516609797138 150.78006830939557,67.47228399282903 150.9381556478329,67.42651977567584 151.27409124188125,67.28922706817684 151.43217858020216,67.22058068301703 151.7483532569604,67.12905213667545 151.94596242997795,67.10616999429476 152.2621371067362,67.1519342768006 152.43998536234722,67.1519342768006 152.57831178349443,67.1519342768006 152.93400829471648,67.10616999429476 153.11185655044392,67.08328784961486 153.40827030991204,66.923112771241 153.56635764823295,66.85446627406054 153.72444498667028,66.76293757862004 154.574164430378,66.44258685059322 155.14723103202414,66.57988007573294 155.28555745317135,66.6256444654282 155.42388387408573,66.64852665674698 155.58197121252306,66.71717321683536 155.8981458892813,66.71717321683536 156.07599414500874,66.69429103247239 156.25384240061976,66.6256444654282 156.88619175413623,66.32817576562229 157.00475725787692,66.2595290865138 157.34069285192527,66.1222356656217 157.69638936338015,66.07647117330635 157.85447670170106,66.03070667172142 157.99280312284827,66.03070667172142 158.32873871689662,65.98494216073595 158.48682605521753,65.98494216073595 158.64491339353845,65.98494216073595 158.96108807029668,65.8934131108399 159.1191754086176,65.80188402354543 159.2575018297648,65.71035489911446 159.3760673335055,65.59594344101788 159.35630641621538,65.57306114236417 159.35630641621538,65.55017884145491 159.8108075140044,65.39000266951916 159.98865576973185,65.36712034989614 160.70004879240878,65.45864961431653 161.09526713832747,65.39000266951916 161.43120273249224,65.22982638339454 161.74737740913406,65.11541468047653 161.9449865821516,65.16117936857336 162.12283483776264,65.16117936857336 162.41924859723076,65.11541468047653 162.69590143940877,65.0010029191908 162.81446694326587,64.8865910996974 162.95279336429667,64.79506160209712 163.76299097354058,64.63488489156589 164.0594047328923,64.63488489156589 164.1977311540395,64.58912009611959 164.35581849247683,64.56623769488942 164.4941449133912,64.56623769488942 164.79055867285933,64.52047288551694 164.94864601129666,64.47470806678757 165.10673334961757,64.42894323868677 165.32410344004165,64.3831784012873 165.44266894366592,64.3831784012873 165.60075628210325,64.31453112773306 165.75884362042416,64.29164869856322 166.23310563561972,64.13147162889072 166.37143205665052,64.06282427838596 166.52951939497143,63.99417690689734 166.82593315455597,63.856882100881194 166.96425957547035,63.788234666368226 167.49780434265267,63.62805723765632 168.24871919990983,63.14752426603809 168.38704562094063,63.10175916743174 168.52537204208784,63.05599405954126 168.68345938040875,63.033111502067186 168.99963405705057,62.941581249047886 169.177482312778,62.89581610850291 169.33556965109892,62.85005095870292 169.65174432797357,62.80428579951695 169.8295925835846,62.758520631003194 170.00744083919562,62.68987286077754 170.3433764333604,62.59834246769606 170.54098560637794,62.575459863684955 170.69907294469886,62.55257725728734 171.19309587706812,62.438164190229145 171.33142229821533,62.41528156984714 171.449987801956,62.36951632205455 171.80568431329448,62.27798579848604 171.9637716516154,62.23222052276833 172.12185899005271,62.209337881344254 172.45779458410107,62.09492463945935 172.91229568200652,62.50681203746353 172.95181751647033,62.66699026596325 173.01110026845708,62.85005095870292 173.10990485490765,63.170406811725115 173.1889485240681,63.35346709405712 173.40631861437578,63.94841198081849 173.50512320082635,64.20011895848438 173.5644059528131,64.36029597914603 173.62368870456703,64.68064967765531 173.64344962185714,64.84082635556115 173.6829714565538,64.97812055997201 173.66321053926367,65.06964998295007 173.78177604288794,65.39000266951916 173.82129787758458,65.57306114236417 173.93986338132527,66.0993534205918 173.9991461331956,66.28241131528921 174.01890705048572,66.46546906065487 174.0979507197626,66.80870193097508 174.13747255434282,66.9459949323209 174.15723347163294,67.10616999429476 174.19675530621316,67.4494018854457 174.21651622350328,67.632458679509 174.2362771409098,67.79263325197098 174.29555989266373,68.15874613134656 174.31532081007026,68.36468436369614 174.35484264453407,68.5477404116682 174.41412539652083,68.89097009948455 174.43388631381094,69.05114377432619 174.43388631381094,69.18843540456146 174.4931690656813,69.50878221556195 174.5129299829714,69.66895544972795 174.57221273484174,69.98930157526047 174.59197365213186,70.49270170637465 174.94767016358674,70.74440134878387 175.1848011709517,70.69863779841398 175.61954135168344,70.62999245538958 175.8566723591648,70.67575601975841 175.9554769457318,70.76728312043997 175.9752378630219,70.76728312043997 175.9554769457318,70.76728312043997 175.9752378630219,70.79016488985508 175.9752378630219,70.79016488985508 176.07404244935606,71.0876276793133 176.19260795321316,71.27068150776904 176.82495730661321,71.15627288245014 177.338741156389,71.0189824551926 177.61539399856701,70.81304665682546" stroke="#4dd2ff" stroke-linecap="round" stroke-linejoin="round" stroke-width="0.5"><title>2023-02-09 11.0km</title></polyline><polyline fill="none" points="86.89141070947517,219.9652794624999 86.86939385707956,219.6593557666929 87.33174775762018,217.51787942339433 87.5959499864839,217.39041001553414 88.12435444421135,217.18645882779674 88.36653982067946,217.0844831715658 88.85091057361569,216.88053173453955 89.68755096499808,216.804049902712 89.9517531938618,216.75306200189516 90.50217450398486,216.65108616910584 90.7883935852442,216.6000982370606 91.33881489548367,216.49812234193087 91.88923620560672,216.90602567323367 91.84520250069909,217.41590390224883 91.95528676267713,218.56312611869362 91.93326991039794,218.97102608365822 92.02133731998038,219.42991274945962 92.13142158207484,219.9907730869163 91.80116879602429,220.62811285356293 91.58100027195178,220.70459351644968 91.38284860027488,220.78107415602426 91.0085621093167,220.93403536498954 90.6122587659629,221.03600945226208 90.19393857032992,221.1889705053909 89.57746670290362,221.3164379781956 89.37931503134314,221.36742494914506 89.20318021217827,221.44390538615698 88.80687686882447,221.5713727291004 88.60872519714758,221.62235964808497 88.41057352547068,221.72433345486934 87.81611851055641,221.87729408721498 87.41981516720261,221.979267790186 86.9354444143828,221.11248999055533 86.9354444143828,220.6790999647783 86.95746126677841,220.2712027842499 87.02351182384882,219.6593557666929 87.06754552875645,219.42991274945962 87.08956238103565,219.25145692384103 87.02351182384882,218.07874404669565 87.06754552875645,217.8492995800334 87.3757814624114,217.4923855470115 87.52989942929707,217.41590390224883 87.66200054367073,217.33942223417398 88.2344387061894,217.16096491766803 88.43259037786629,217.1354710048763 88.78486001631245,216.98250747386192 89.20318021217827,216.9315196093521 89.59948355541565,216.82954384929326 89.81965207948815,216.77855595364235 90.01780375104863,216.6765801311849 90.41410709428601,216.5491102947999 90.8104104376398,216.31966442539124 91.03057896171231,216.24318242214213 91.66906768153422,216.9315196093521 91.73511823872104,217.64534876633843 91.80116879602429,218.0532502274291 91.8672193530947,218.28269450708467 91.93326991039794,218.86905115480477 92.04335417237598,219.30244431557367 92.08738787728362,219.86330493880087 92.13142158207484,220.29669637753977 92.15343843435403,220.52613859997655 93.32033161190338,220.93403536498954 93.73865180765279,220.70459351644968 94.81747757550329,221.62235964808497 94.77344387071207,221.74982690010802 94.81747757550329,221.80081378278555 95.0376460995758,222.31068203775794 95.08167980436701,222.51462904880464 95.12571350915823,222.97350921612815 95.14773036155384,223.5598548717826 95.14773036155384,223.73830762479338 95.19176406634506,223.96774669158913 95.19176406634506,223.96774669158913 95.19176406634506,223.96774669158913 95.34588203323074,224.93648709880654 95.43394944281317,225.49733509414364 95.5,225.72677254804876 95.27983147604391,226.28761877218494 94.8394944278989,226.33860473021923 94.24503941286821,226.3640977053874 93.82671921723522,226.46606957988115 93.67260125034954,226.54254845857213 93.34234846441541,226.77198495413177 93.21024734992534,226.87395666254451 92.83596085908357,227.0524070521351 92.63780918740667,227.07789995448547 92.21948899165727,227.12888575151737 92.02133731998038,227.15437864618434 91.82318564830348,227.15437864618434 91.16268007608596,227.35832170960202 90.83242729015183,227.5877574573242 90.72234302805737,227.76620733784512 90.43612394679803,228.02113551796356 90.23797227512114,228.0721211228083 90.03982060344424,228.14859951059043 89.64351726020686,228.2760634383012 89.22519706445746,228.40352730108134 89.00502854050137,228.45451282804424 88.80687686882447,228.53099109901814 88.38855667307507,228.70944030697865 88.14637129649054,228.76042577151384 87.92620277253445,228.81141122574627 87.52989942929707,228.98986023373436 87.30973090522457,229.01535293880443 87.08956238103565,229.0918310383131 86.64922533300705,229.1683091145096 86.42905680893455,229.21929448563606 86.03275346569717,229.3467578680138 85.81258494162466,229.3722505367041 85.43829845066648,229.49971384111268 84.71174232126214,229.47422118544637 84.57964120688848,229.3722505367041 84.38148953521159,229.27027984632878 84.44754009239841,229.27027984632878 84.44754009239841,229.27027984632878 84.44754009239841,229.29577252284798 84.44754009239841,229.29577252284798 84.46955694491044,229.32126519668964 84.42552324011922,229.3467578680138 84.33745583042037,229.3467578680138 83.85308507760055,229.39774320277502 82.95039412879851,230.18801456331857 82.75224245723803,230.21350714634173 82.55409078556113,230.23899972676008 82.15778744232375,230.28998487968056 81.38719760812819,230.4429402763344 81.1890459364513,230.51941793956212 80.81475944560952,230.59589557950676 80.63862462632824,230.62138812092599 80.44047295465134,230.64688065974042 80.04416961129755,230.69786572962767 79.84601793973707,230.72335826068593 79.62584941566456,230.74885078918305 79.20752921991516,230.7998358382465 79.00937754823826,230.8253283589147 78.78920902428217,230.87631339242216 78.32685512374155,230.9527909232711 78.12870345206466,230.97828342833964 77.90853492799215,231.029268430706 77.44618102756795,231.08025342275505 76.78567545535043,230.97828342833964 76.63155748846475,230.87631339242216 76.47743952157907,230.77434331501718 75.99306876875926,230.72335826068593 75.81693394947797,230.77434331501718 75.6407991303131,230.7998358382465 75.26651263935491,230.92729841562686 74.91424300079234,231.05476092801837 74.76012503402308,231.13123840429762 74.47390595264733,231.3861631564214 74.01155205222312,231.7175649460405 73.57121500419453,231.76854979788186 73.39508018491324,231.79404221982986 73.19692851323634,231.81953463917307 72.80062516988255,231.896011881734 72.58045664592646,231.92150429074536 72.36028812185396,231.92150429074536 71.91995107370894,231.92150429074536 71.25944550149143,231.94699669719557 71.03927697753534,231.97248910096823 70.29070399573538,232.09995108102157 69.89440065238159,232.0234739008156 69.52011416142341,232.07445869022922 69.14582767069805,232.17642823790084 68.99170970369596,232.3038901141408 68.28717042680364,232.45684427990636 68.02296819793992,232.45684427990636 67.31842892093118,232.8392292852659 66.98817613476422,232.8392292852659 66.37170426757075,232.86472159816185 66.17355259589385,232.89021390852577 65.97540092421696,232.941198521381 65.57909758086316,233.01767542115704 65.40296276169829,233.01767542115704 65.2048110900214,233.0686600080371 64.83052459917963,233.0941522975627 64.28010328905657,233.19612142973347 64.05993476486765,233.2216137064097 63.83976624091156,233.24710598033562 63.531530307023786,233.14513686894497 63.37741234037094,233.01767542115704 62.8710247350391,232.8392292852659 62.78295732534025,232.86472159816185 62.78295732534025,232.89021390852577 62.51875509659294,233.0686600080371 62.36463712959085,233.14513686894497 61.85824952425901,233.32358278665924 61.373878771439195,233.37456731119892 60.581272084848024,233.47653632918082 60.18496874149423,233.47653632918082 59.81068225065246,233.52752082262305 59.612530578975566,233.5785053056461 59.436395759810694,233.62948977826454 59.06210926885251,233.7569509143941 58.88597444968764,233.83342756489583 58.53370481112506,234.03736518531514 57.763114977045916,234.06285737626604 57.60899701004382,234.08834956452483 57.697064419742674,234.03736518531514 57.71908127202187,234.03736518531514 57.763114977045916,234.03736518531514 57.763114977045916,234.06285737626604 57.763114977045916,234.06285737626604 57.74109812453389,234.06285737626604 57.74109812453389,234.06285737626604 57.78513182932511,234.06285737626604 57.80714868172072,234.03736518531514 57.80714868172072,234.06285737626604 57.82916553411633,234.03736518531514 57.82916553411633,234.01187299187586 57.82916553411633,234.03736518531514 57.80714868172072,234.03736518531514 57.82916553411633,234.01187299187586 57.82916553411633,234.01187299187586 57.763114977045916,234.01187299187586 57.71908127202187,234.01187299187586 57.63101386243943,234.03736518531514 57.080592552316375,234.16482611380343 56.596221799380146,234.11384175020794 56.243952160933986,233.9863807958318 55.51739603152964,234.19031829164305 55.341261212248355,234.29228697724466 55.12109268817585,234.3687634641392 54.72478934493847,234.52171636793355 54.526637673261575,234.59819278478972 54.1303343300242,234.7001613041357 53.91016580595169,234.75114554828906 53.712014134274796,234.7766376665095 53.31571079103742,234.80212978205236 53.09554226696491,234.80212978205236 52.69923892361112,234.8531140053965 52.52310410444625,234.9040982183651 52.32495243276935,235.00606661316124 51.92864908941556,235.08254288195167 51.70848056534305,235.1080349663971 51.46629518899135,235.15901912742993 51.047974993358366,235.2354953494214 50.60763794509694,235.26098741829628 49.99116607767064,235.18451120400277 49.81503125850577,235.2354953494214 49.59486273443326,235.21000327801448 49.63889643922448,235.26098741829628 49.660913291736506,235.31197154817346 49.52881217724644,235.4394318274717 49.41872791526839,235.4394318274717 49.41872791526839,235.41393977677217 49.440744767547585,235.3884477234824 49.440744767547585,235.3884477234824 49.41872791526839,235.36295566767512 49.37469421036076,235.3884477234824 48.93435716221575,235.41393977677217 48.47200326167513,235.49041592094 48.05368306604214,235.4649238754937 47.83351454208605,235.4394318274717 47.150992117472924,235.3884477234824 46.8867898886092,235.36295566767512 46.44645284046419,235.36295566767512 46.226284316391684,235.33746360924852 45.741913563455455,235.31197154817346 45.49972818698734,235.31197154817346 44.88325631967746,234.87860611316864 44.66308779560495,234.8531140053965 44.26678445225116,234.87860611316864 44.06863278057426,234.9550824209582 43.87048110901378,235.00606661316124 43.40812720847316,235.03155870533374 43.14392497949302,235.00606661316124 42.747621636255644,234.87860611316864 42.54946996469516,234.8531140053965 42.19720032613259,234.80212978205236 42.021065506967716,234.7766376665095 41.84493068768643,234.80212978205236 41.44862734444905,234.8531140053965 41.250475672772154,234.87860611316864 41.05232400109526,234.9040982183651 40.678037510137074,234.87860611316864 40.47988583857659,234.8531140053965 40.281734166899696,234.8276218950341 39.33500951342285,234.72565342755115 38.87265561299864,234.62368491852249 38.87265561299864,234.62368491852249 38.85063876060303,234.59819278478972 38.85063876060303,234.5727006484376 38.87265561299864,234.5472085094516 38.82862190809101,234.5472085094516 38.806605055811815,234.5472085094516 38.78458820329979,234.59819278478972 38.806605055811815,234.59819278478972 38.82862190809101,234.59819278478972 38.82862190809101,234.59819278478972 38.87265561299864,234.59819278478972 38.894672465277836,234.5727006484376 38.87265561299864,234.59819278478972 38.87265561299864,234.5727006484376 38.85063876060303,234.59819278478972 38.43231856485363,234.62368491852249 38.27820059796795,234.62368491852249 37.15534112532623,234.4962242238107 36.737020929693244,234.52171636793355 36.56088611029554,234.5472085094516 36.36273443873506,234.5472085094516 35.922397390706465,234.5727006484376 35.72424571902957,234.59819278478972 35.305925523280166,234.5727006484376 35.08575699920766,234.52171636793355 34.93163903232198,234.4962242238107 34.5573525413638,234.39425562130054 34.3592008696869,234.3687634641392 34.18306605052203,234.3687634641392 33.76474585488904,234.41974777587166 33.566594183212146,234.44523992775066 33.19230769225396,234.41974777587166 32.994156020577066,234.39425562130054 32.81802120141219,234.3687634641392 32.4217178580584,234.266794809766 31.497010057093576,234.16482611380343 30.638352813315578,234.31777914219128 30.44020114163868,234.3432713044749 29.97784724109806,234.31777914219128 29.801712421816774,234.29228697724466 29.559527045465074,234.29228697724466 29.009105735225603,234.16482611380343 28.634819244383834,234.13933393331536 28.458684425102547,234.19031829164305 28.282549605937675,234.266794809766 27.57801032892894,234.29228697724466 27.379858657252043,234.31777914219128 26.74136993754655,234.266794809766 26.52120141335763,234.24130263971165 26.124898070236668,234.19031829164305 25.92674639855977,234.16482611380343 25.728594726882875,234.13933393331536 25.35430823592469,234.13933393331536 24.759853221010417,233.80793535067642 24.36354987777304,233.80793535067642 24.165398206096143,233.78244313386676 23.989263386814855,233.7569509143941 23.614976895973086,233.78244313386676 23.26270725741051,233.85891977653955 23.020521880942397,233.80793535067642 22.646235389984213,233.73145869237487 22.448083718307316,233.6804742404638 21.98572981788311,233.6039975432359 21.611443327041343,233.62948977826454 21.435308507760055,233.62948977826454 21.259173688478768,233.6804742404638 20.84085349284578,233.78244313386676 20.664718673564494,233.83342756489583 20.246398477931507,233.83342756489583 20.04824680625461,233.80793535067642 19.673960315296426,233.70596646772174 19.12353900517337,233.5785053056461 18.925387333496474,233.52752082262305 18.551100842654705,233.52752082262305 18.352949170861393,233.50202857716067 18.154797499300912,233.52752082262305 17.780511008459143,233.5785053056461 17.582359336782247,233.5785053056461 17.38420766510535,233.6039975432359 16.943870617076755,233.6549820106593 16.745718945399858,233.62948977826454 16.56958412611857,233.62948977826454 15.975129111204296,233.52752082262305 15.29260668659117,233.42555182539218 14.742185376468115,233.5785053056461 14.5,233.2216137064097 14.5,233.0431677158631 14.544033704791218,232.8392292852659 14.654117966885678,232.50782898100442 14.698151671560481,232.3038901141408 14.764202228863724,232.12544346929644 14.918320195632987,231.7175649460405 14.96235390054062,231.51362543513824 15.116471867309883,231.23320833632897 15.490758358268067,231.15673089117627 15.710926882340573,231.15673089117627 16.10723022557795,231.15673089117627 16.327398749650456,231.10574591481418 16.745718945399858,231.0037759308616 16.943870617076755,230.97828342833964 17.14202228875365,230.9527909232711 17.51630877959542,230.9527909232711 17.73647730355151,230.97828342833964 17.934628975228406,230.97828342833964 18.3309323185822,230.97828342833964 18.50706713774707,231.029268430706 18.68320195702836,231.0037759308616 19.27765697205905,231.0037759308616 19.47580864361953,230.9527909232711 19.673960315296426,230.92729841562686 20.070263658533804,230.8508208769781 20.378499592188746,230.72335826068593 20.53261755919084,230.62138812092599 20.730769230867736,230.4429402763344 20.818836640333757,230.34097002229828 20.928920902544633,230.26449230451544 20.950937754823826,229.72914762557775 20.972954607219435,229.55069914470369 20.906904050032608,229.19380180141889 20.884887197637,228.98986023373436 20.906904050032608,228.63296209051623 20.972954607219435,228.53099109901814 21.016988312010653,228.25057065796864 20.972954607219435,228.0466283216665 20.906904050032608,227.71522167074727 20.884887197637,227.56226460686594 20.818836640333757,227.38381458088406 21.105055721709505,226.67001320430427 21.34724109817762,226.64452026037907 21.5453927697381,226.64452026037907 21.98572981788311,226.61902731377631 22.227915194351226,226.64452026037907 22.69026909477543,226.56804141287284 23.10858929064125,226.51705550156476 23.8571622724412,226.46606957988115 24.56170154933352,226.51705550156476 24.759853221010417,226.51705550156476 25.640527317184024,226.33860473021923 26.036830660537817,226.3131117525336 26.234982332214713,226.3640977053874 27.996330524678342,226.28761877218494 28.19448219635524,226.33860473021923 28.392633868032135,226.389590677878 28.76692035875749,226.389590677878 28.943055178038776,226.389590677878 29.141206849715672,226.389590677878 29.537510193069465,226.41508364777837 29.933813536306843,226.41508364777837 30.109948355471715,226.41508364777837 30.33011687954422,226.389590677878 30.94658874697052,226.21113981567032 31.607094319188036,226.13466083578533 31.871296547935344,226.1601538316463 32.02541451482102,226.18564682494616 32.39970100577921,226.1601538316463 32.5978526774561,226.1601538316463 32.97213916829787,226.1601538316463 33.346425659256056,226.1601538316463 34.050964936148375,226.1601538316463 34.425251426990144,226.10916783723223 34.997689589625224,226.03268882616248 35.15180755639449,226.08367483610346 35.54811089974828,226.08367483610346 35.74626257142518,226.03268882616248 35.922397390706465,226.03268882616248 36.62693666748237,226.10916783723223 37.19937483011745,226.0581818324281 37.35349279700313,226.03268882616248 38.03601522161625,226.28761877218494 37.83786354993936,225.98170280580234 37.83786354993936,225.8542377094127 37.771812992636114,225.7777586203738 37.771812992636114,225.7777586203738 37.81584669742733,225.72677254804876 37.83786354993936,225.7777586203738 37.81584669742733,225.75226558548457 37.79382984503172,225.7777586203738 37.771812992636114,225.75226558548457 37.79382984503172,225.72677254804876 38.16811633598991,225.70127950803726 38.564419679227285,225.67578646542097 38.98273987497669,225.67578646542097 39.20290839904919,225.65029342012713 39.4230769231217,225.62480037230125 39.86341397126671,225.65029342012713 40.281734166899696,225.62480037230125 40.656020657741465,225.57381426876236 40.85417232941836,225.57381426876236 41.07434085349087,225.59930732182693 41.66879586840514,225.52282815494982 41.88896439247765,225.49733509414364 42.32930144062266,225.52282815494982 42.54946996469516,225.5483212131512 42.92375645553693,225.5483212131512 43.12190812721383,225.52282815494982 43.89249796140939,225.4718420306599 45.21350910561159,225.19141816157207 45.43367762980051,225.14043196976127 45.653846153989434,225.1149388700287 46.05014949722681,225.03845955502766 46.226284316391684,224.96198021674354 46.60057080734987,224.8600077292649 46.820739331422374,224.8855008550163 47.01889100309927,224.8855008550163 47.41519434633665,224.80902146997687 47.83351454208605,224.70704892015783 48.00964936125092,224.68155577633297 48.20780103292782,224.63056948057783 48.582087523886,224.52859685814474 48.95637401472777,224.45211736396595 49.15452568640467,224.45211736396595 49.660913291736506,224.50310369605722 49.63889643922448,224.50310369605722 49.61687958694529,224.50310369605722 49.61687958694529,224.50310369605722 49.572845882037655,224.52859685814474 49.572845882037655,224.52859685814474 49.572845882037655,224.52859685814474 49.572845882037655,224.50310369605722 49.572845882037655,224.50310369605722 49.59486273443326,224.42662419406406 49.99116607767064,224.32465148845222 50.43150312581565,224.22267874126555 50.58562109270133,224.17169235217443 51.00394128833432,224.01873312231328 51.18007610773202,223.99323990821722 51.532345746061765,223.99323990821722 51.70848056534305,223.96774669158913 51.88461538462434,223.94225347228348 52.32495243276935,224.04422633373179 52.74327262840234,224.09521274889994 53.13957597175613,223.99323990821722 53.55789616750553,223.89126702597423 53.77806469146162,223.84028056936222 53.97621636313852,223.78929410225828 54.5486545257736,223.58534813002916 54.680755640147254,223.45788181299577 55.25319380266592,223.53436161098944 55.2091600978747,223.5088683476206 55.18714324559551,223.53436161098944 55.451345474342816,223.45788181299577 55.6274802936241,223.40689526799542 56.22193530853838,223.0499891620566 56.420086980215274,223.0244958493422 56.77235661866143,222.97350921612815 56.94849143794272,222.94801589552662 57.1466431095032,222.92252257236396 57.697064419742674,222.84604258733452 57.917232943698764,222.79505591775523 58.42362054914702,222.64209584641503 58.66580592549872,222.56561577563116 59.150176678434946,222.4636423116899 59.37034520250745,222.4636423116899 59.54648002178874,222.4381489391817 59.96480021753814,222.38716218636546 60.38312041317113,222.33617542321736 60.75740690412931,222.23420186569274 60.933541723294184,222.18321507137443 61.32984506664798,222.10673486041196 61.52799673832487,222.0302546260791 61.72614841000177,222.00476120940584 62.10043490084354,221.87729408721498 62.47472139168531,221.77532034278556 62.6728730633622,221.80081378278555 62.8710247350391,221.8263072201662 63.64161456923466,221.87729408721498 64.01590106007643,221.77532034278556 64.19203587935772,221.69884000709862 64.368170698639,221.62235964808497 64.74245718948077,221.52038579968212 64.91859200876206,221.44390538615698 65.07270997553132,221.41841190973355 65.44699646648951,221.3164379781956 66.06346833379939,221.1379834980762 66.61388964392245,221.01051593436569 66.79002446320374,220.9850224137772 67.18632780644111,220.88304830570996 67.38447947811801,220.85755477217026 67.60464800230693,220.8320612360112 68.02296819793992,220.78107415602426 68.22111986961681,220.73008706557448 68.8375917369267,220.75558061213815 69.25591193255968,220.62811285356293 69.78431639040355,220.50064503011527 70.15860288124532,220.55163216729125 70.35675455292221,220.52613859997655 70.73104104376398,220.4241643048881 71.25944550149143,220.220215589914 71.63373199256603,220.19472198889707 71.83188366412651,220.19472198889707 72.00801848329138,220.220215589914 72.38230497424956,220.19472198889707 72.55843979353085,220.14373477899062 72.75659146520775,220.0672539446532 73.08684425114188,219.9652794624999 73.59323185647372,219.93978583543503 73.5491981516825,219.93978583543503 73.5271812992869,219.91429220586724 73.5051644470077,219.93978583543503 73.5491981516825,219.88879857357824 73.5271812992869,219.86330493880087 73.5491981516825,219.81231766135897 74.4078553954605,219.6848494222504 74.58399021474179,219.5828747843334 74.91424300079234,219.30244431557367 75.46466431103181,219.09849468639004 75.86096765426919,219.17497581674252 76.25727099762298,219.14948210920556 76.38937211211305,219.17497581674252 76.56550693127792,219.20046952173288 76.4994563740911,219.17497581674252 76.47743952157907,219.09849468639004 76.43340581678785,218.97102608365822 76.78567545535043,218.6651011723152 77.1599619461922,218.48664480118896 77.3801304702647,218.48664480118896 77.5782821419416,218.46115102354088 77.99660233757459,218.43565724330256 78.39290568092838,218.38466967495333 78.98736069595907,218.12973167734162 79.29559662961401,217.92578109228634 79.82400108734146,217.72183034098998 80.24232128297444,217.69633648532908 80.44047295465134,217.74732419395878 80.61660777393263,217.77281804436643 80.96887741237879,217.77281804436643 81.14501223166008,217.77281804436643 81.73946724669077,217.69633648532908 82.11375373741612,217.67084262719436 82.28988855681382,217.64534876633843 82.48804022849072,217.64534876633843 82.99442783370614,217.4923855470115 83.63291655352805,217.44139778641693 83.85308507760055,217.41590390224883 84.29342212562915,217.33942223417398 84.66770861658733,217.28843444236554 85.06401195982471,217.05898925103247 85.41628159827087,216.90602567323367 85.61443326994777,216.88053173453955 85.81258494162466,216.85503779318242 86.23090513737407,216.72756804761593 86.60519162821583,216.3961464051681 87.02351182384882,216.19219440702 87.3757814624114,216.11571236488817 88.27847241109703,215.88626609816856 88.6527589019388,215.70780774517334 89.26923076924868,215.58033741515828 89.88570263655856,215.70780774517334 90.28200597991236,215.6058314863476 90.98654525692109,215.09594956874207 91.40486545255408,214.94298479087593 92.08738787728362,214.76452576511656 92.2855395488441,214.76452576511656 92.85797771136276,214.50958407907456 93.23226420220453,214.81551407117513 93.3643653166946,215.47836110433855 93.3643653166946,215.68231368441775 93.38638216909021,215.91176013815857 93.43041587388143,216.34515842121618 93.5625169883715,216.77855595364235 93.62856754555833,217.00800140216597 93.7606686600484,217.4923855470115 94.00285403651651,218.6396074127697 94.13495515089016,219.07300097099505 94.2010057081934,219.27695062101702 94.53125849424396,220.32218996819574 94.57529219903518,220.52613859997655 94.641342756222,221.03600945226208 94.00285403651651,221.41841190973355 93.7606686600484,221.4948923310585 93.21024734992534,221.62235964808497 92.26352269644849,221.69884000709862 92.26352269644849,221.69884000709862 92.21948899165727,221.62235964808497 91.84520250069909,221.52038579968212 91.40486545255408,221.59686618990963 90.39209024200682,221.85180065504392 89.75360152218491,222.00476120940584" stroke="#4dd2ff" stroke-linecap="round" stroke-linejoin="round" stroke-width="0.5"><title>2023-02-06 10.0km</title></polyline><polyline fill="none" points="176.03777128830552,199.82446484500542 176.9830841179937,214.0542663396336 177.61329267174006,216.6083272891119 178.24350122734904,219.8921172611881 181.3945439979434,234.1218390162103 181.70964827388525,245.79746591835283 176.35287556424737,249.0812291263137 170.680998576805,252.36498932354152 150.51432484947145,257.8379162934143 146.7330735232681,259.2973620733246 125.30598268657923,265.5 106.08462178707123,258.93250068323687 107.02993461675942,253.82443733280525 108.29035172611475,250.54067847435363 107.66014317236841,248.3515042285435 107.66014317236841,244.70287751336582 108.6054560020566,241.0542470808141 107.34503889456391,234.48670293274336 107.34503889456391,231.93265473400243 121.83983563818038,205.6623389646411 129.08723401091993,199.45959739712998 134.4440067205578,194.7163171833381 136.019528105855,193.25684508448467 140.11588370613754,192.16224062023684 143.58203075267375,191.79737239074893 145.15755213983357,191.79737239074893 146.7330735232681,191.79737239074893 150.51432484947145,191.79737239074893 152.72005478665233,191.79737239074893 156.18620183505118,191.06763582024723 163.11849592998624,187.05408202903345 176.35287556424737,202.37853594357148 180.13412689045072,224.63536412850954 183.60027393698692,233.027247042628 184.54558676853776,235.2164306549821 185.49089959822595,237.0407493095845 182.97006538324058,244.70287751336582 181.3945439979434,245.79746591835283 180.13412689045072,246.52719133603387 178.55860550515354,247.62177918408997 177.61329267174006,248.3515042285435 174.46224990300834,250.17581619368866 170.680998576805,250.9055407177657 163.4336002059281,253.45957538555376 155.2408890016377,256.7433315673843 138.85546659864485,262.2162518480327 111.44139449484646,264.40541761694476 109.23566455766559,262.58111290237866 106.71483034268022,257.10819318075664 106.39972606487572,254.55416111508384 105.45441323332489,249.44609151920304 104.50910040177405,242.14883660082705 106.08462178707123,239.59479386662133 105.76951750926673,236.31102195987478 107.02993461675942,221.35157850617543 107.34503889456391,216.24346154998057 112.7018116042018,208.58127245632932 124.99087840877473,201.28393426723778 128.4570254571736,198.72986238845624 133.49869388900697,195.44605300901458 135.07421527430415,194.7163171833381 136.96484093554318,194.35144921392202 138.54036232084036,193.62171316542663 140.11588370613754,193.25684508448467 141.37630081363022,193.25684508448467 143.89713503047824,193.62171316542663 146.4179692454636,192.89197696652263 150.19922057166696,192.89197696652263 152.08984623290598,192.5271088120062 155.5559932794422,191.4325041247066 157.44661894254386,189.9730306873098 159.33724460564554,188.87842521932907 160.59766171313822,188.14868805371225 161.8580788206309,187.4189507421106 164.69401731528342,185.9594756681472 166.58464297652245,185.22973790834658 167.84506008401513,184.5 170.3658943027258,184.864868973149 171.62631140835583,186.68921327893622 171.62631140835583,187.78381941560656 171.94141568616033,189.60816223546863 172.57162423990667,191.4325041247066 172.57162423990667,192.89197696652263 172.57162423990667,194.35144921392202 175.09245845675468,198.36499482765794 175.72266701050103,199.82446484500542 176.66797984205186,201.64880152931437 177.2981883957982,203.4731372857932" stroke="#4dd2ff" stroke-linecap="round" stroke-linejoin="round" stroke-width="0.5"><title>2023-02-01 1.7km</title></polyline></svg>