<?xml version="1.0" encoding="utf-8" ?>
<svg baseProfile="full" height="200mm" version="1.1" viewBox="0,0,200,200" width="200mm" xmlns="http://www.w3.org/2000/svg" xmlns:ev="http://www.w3.org/2001/xml-events" xmlns:xlink="http://www.w3.org/1999/xlink"><defs /><rect fill="#1a1a1a" height="200" width="200" x="0" y="0" /><text alignment-baseline="middle" fill="#e1ed5e" style="dominant-baseline: central; font-size:9.0px; font-family:Arial;" text-anchor="middle" x="100.0" y="100.0">2025</text><line stroke="#e1ed5e" stroke-width="0.3" x1="100.0" x2="100.0" y1="15.0" y2="10.0" /><path d="M 100.0 14.0 a86.0,86.0 0 0,1 42.46469731375804,11.215312516191453" fill="none" id="id37" stroke="none" /><text fill="#e1ed5e" style="font-size:6.75px; font-family:Arial;" text-anchor="middle"><textPath startOffset="22.20632615414155" xlink:href="#id37">January</textPath></text><line stroke="#e1ed5e" stroke-width="0.3" x1="143.23703022742887" x2="145.7803849466894" y1="26.81831364943548" y2="22.513508569990506" /><path d="M 143.74570117128098 25.957352633546492 a86.0,86.0 0 0,1 28.547481713284135,27.462654790039103" fill="none" id="id38" stroke="none" /><text fill="#e1ed5e" style="font-size:6.75px; font-family:Arial;" text-anchor="middle"><textPath startOffset="19.985693538727396" xlink:href="#id38">February</textPath></text><path d="M 115.4437574822437 85.77008943001954 l 10.984395681670515 -10.121045244019367 a35.93628150923077,35.93628150923077 0 0,0 0.4152460590870102,0.45852506982358227 l -11.15698538137356 9.930467386926235" fill="#ff900d" stroke="none" /><path d="M 116.82858285166822 87.43820079747576 l 12.029709347980523 -8.979650552041598 a36.011596551788585,36.011596551788585 0 0,0 0.3665249793425044,0.4999396599141194 l -12.182496939836653 8.771248448455983" fill="#ff910d" stroke="none" /><line stroke="#e1ed5e" stroke-width="0.3" x1="172.23445277983987" x2="176.4835382374775" y1="55.19839476539836" y2="52.563006222186495" /><path d="M 173.08426987136738 54.67131705675599 a86.0,86.0 0 0,1 12.851231095245387,41.99856678651699" fill="none" id="id39" stroke="none" /><text fill="#e1ed5e" style="font-size:6.75px; font-family:Arial;" text-anchor="middle"><textPath startOffset="22.20632615414155" xlink:href="#id39">March</textPath></text><line stroke="#e1ed5e" stroke-width="0.3" x1="184.98032266829074" x2="189.97916517819016" y1="98.17113171792111" y2="98.06355123074" /><path d="M 185.9800911702706 98.14961562048488 a86.0,86.0 0 0,1 -9.607161424134198,41.387399972396054" fill="none" id="id40" stroke="none" /><text fill="#e1ed5e" style="font-size:6.75px; font-family:Arial;" text-anchor="middle"><textPath startOffset="21.466115282336823" xlink:href="#id40">April</textPath></text><path d="M 119.26925614724726 108.34839909993367 l 6.386278434705938 2.766853101583855 a27.959887091852448,27.959887091852448 0 0,0 -0.19513193920085617,0.43997100957044144 l -6.337705410773809 -2.876372447646984" fill="#ff1a02" stroke="none" /><line stroke="#e1ed5e" stroke-width="0.3" x1="174.80103733775053" x2="179.2010983576182" y1="140.37084112569926" y2="142.7455964860345" /><path d="M 175.68104954172406 140.8457921977663 a86.0,86.0 0 0,1 -30.038265399797805,32.042727171017184" fill="none" id="id41" stroke="none" /><text fill="#e1ed5e" style="font-size:6.75px; font-family:Arial;" text-anchor="middle"><textPath startOffset="22.206326154141568" xlink:href="#id41">May</textPath></text><line stroke="#e1ed5e" stroke-width="0.3" x1="143.8653032363475" x2="146.44561519142675" y1="172.8068346515853" y2="177.08958963109032" /><path d="M 144.38136562736335 173.6633856474863 a86.0,86.0 0 0,1 -40.68145358897372,12.25698825130547" fill="none" id="id42" stroke="none" /><text fill="#e1ed5e" style="font-size:6.75px; font-family:Arial;" text-anchor="middle"><textPath startOffset="21.466115282336833" xlink:href="#id42">June</textPath></text><path d="M 100.90346689309514 120.98055641714683 l 0.2290272878960517 5.3185346043036725 a26.32346351877954,26.32346351877954 0 0,0 -0.4528634115604663,0.015597531556549544 l -0.13744352466093313 -5.321688934286316" fill="#ff0000" stroke="none" /><line stroke="#e1ed5e" stroke-width="0.3" x1="102.19456741930631" x2="102.32365962044197" y1="184.97166512339345" y2="189.96999836594603" /><path d="M 102.22038585953345 185.97133177190398 a86.0,86.0 0 0,1 -42.740103519485714,-10.115201625700543" fill="none" id="id43" stroke="none" /><text fill="#e1ed5e" style="font-size:6.75px; font-family:Arial;" text-anchor="middle"><textPath startOffset="22.20632615414155" xlink:href="#id43">July</textPath></text><path d="M 91.40352486487194 119.15986991738527 l -14.15062070878997 31.538979380370815 a55.56800958689249,55.56800958689249 0 0,0 -0.8693271219427161,-0.3990654438811189 l 14.691415826500107 -31.29072686615562" fill="#73ff27" stroke="none" /><path d="M 90.7491055286396 118.85261126421891 l -6.350937350250038 12.942721744188841 a35.41695014121571,35.41695014121571 0 0,0 -0.54499281142516,-0.2732707095137514 l 6.572784069357958 -12.831483193765788" fill="#ff890c" stroke="none" /><line stroke="#e1ed5e" stroke-width="0.3" x1="58.666819895761336" x2="56.23545636021788" y1="174.27360380694188" y2="178.64263932499728" /><path d="M 58.180547188652646 175.14741091055294 a86.0,86.0 0 0,1 -31.652253787137756,-30.449443065178592" fill="none" id="id44" stroke="none" /><text fill="#e1ed5e" style="font-size:6.75px; font-family:Arial;" text-anchor="middle"><textPath startOffset="22.20632615414155" xlink:href="#id44">August</textPath></text><line stroke="#e1ed5e" stroke-width="0.3" x1="26.63291911575756" x2="22.317208475507996" y1="142.92168965132927" y2="145.44649492493687" /><path d="M 25.769776987707644 143.4266507060508 a86.0,86.0 0 0,1 -11.730757126820373,-40.83630448921669" fill="none" id="id45" stroke="none" /><text fill="#e1ed5e" style="font-size:6.75px; font-family:Arial;" text-anchor="middle"><textPath startOffset="21.46611528233685" xlink:href="#id45">September</textPath></text><path d="M 79.97269907076064 106.31721596034903 l -11.855034444190474 3.739436135999177 a33.43081752292097,33.43081752292097 0 0,0 -0.16838502224561727,-0.5502919953908638 l 11.917646238942222 -3.5348171680562652" fill="#ff6c09" stroke="none" /><path d="M 79.67330655649465 105.27499134158121 l -17.82787657271708 4.626522007685848 a39.418411684497556,39.418411684497556 0 0,0 -0.1647852644932547,-0.6582352187107549 l 17.904873151505395 -4.318958949577702" fill="#ffc111" stroke="none" /><line stroke="#e1ed5e" stroke-width="0.3" x1="15.007084014347285" x2="10.007500721073583" y1="101.09737516637583" y2="101.16192664675087" /><path d="M 14.007167355692545 101.11028546245083 a86.0,86.0 0 0,1 10.666146001902534,-42.60595125391555" fill="none" id="id46" stroke="none" /><text fill="#e1ed5e" style="font-size:6.75px; font-family:Arial;" text-anchor="middle"><textPath startOffset="22.20632615414155" xlink:href="#id46">October</textPath></text><path d="M 79.12142395522702 97.74499172005258 l -18.364329084480037 -1.983454908628662 a39.471130883019654,39.471130883019654 0 0,0 0.07877243627888064,-0.6748741285212921 l 18.327466295197567 2.2992727754748157" fill="#ffc212" stroke="none" /><path d="M 79.16333360222342 97.38593545837743 l -29.684240366355375 -3.724037171078903 a50.916927966941046,50.916927966941046 0 0,0 0.11658521963498089,-0.8686953032842832 l 29.615739147662563 4.234450816427846" fill="#a9ff21" stroke="none" /><path d="M 79.21141760316559 97.0276538004421 l -18.30292588297226 -2.616947666298148 a39.489064631985016,39.489064631985016 0 0,0 0.1020023347561751,-0.6720679404894042 l 18.255167654776784 2.931614719179644" fill="#ffc212" stroke="none" /><path d="M 79.32604984820605 96.31383870115002 l -15.396825583774401 -2.745251012764374 a36.63964965017611,36.63964965017611 0 0,0 0.11605046536560742,-0.6199462264189691 l 15.347289394498933 3.009875316645916" fill="#ff9a0e" stroke="none" /><path d="M 79.46518482838121 95.60439243477599 l -18.249065915514674 -3.90632842448829 a39.66247059070059,39.66247059070059 0 0,0 0.14865043146927365,-0.6663707368562807 l 18.17912109704336 4.21987733089453" fill="#ffc412" stroke="none" /><path d="M 81.10775173730289 90.83032412892265 l -17.791480466912013 -8.635399391310786 a40.776422827497456,40.776422827497456 0 0,0 0.3119201921340645,-0.6288120737141484 l 17.640200261824535 8.940371053523897" fill="#ffd313" stroke="none" /><path d="M 81.26839172434947 90.50648371742162 l -7.149466479652629 -3.6234783173722653 a29.015264565823358,29.015264565823358 0 0,0 0.22962206024778295,-0.4435567331648772 l 7.086034986244733 3.7460077727974777" fill="#ff2a04" stroke="none" /><path d="M 81.43458229118936 90.18545643968196 l -17.553738193929917 -9.279722700178379 a40.85565355190405,40.85565355190405 0 0,0 0.3340278483808571,-0.6189028730114707 l 17.39140224633059 9.580506556522321" fill="#ffd413" stroke="none" /><path d="M 81.6062741919709 89.86733742301443 l -43.62595036606233 -24.032490169374505 a70.80747061519202,70.80747061519202 0 0,0 0.5972858266139057,-1.062504838602628 l 43.20580689815599 24.779878517911918" fill="#3bff9f" stroke="none" /><line stroke="#e1ed5e" stroke-width="0.3" x1="26.266209847984243" x2="21.928928074336255" y1="57.711370442889674" y2="55.22380399835377" /><path d="M 25.398753493254645 57.213857153982495 a86.0,86.0 0 0,1 29.58750427330803,-30.492523968695096" fill="none" id="id47" stroke="none" /><text fill="#e1ed5e" style="font-size:6.75px; font-family:Arial;" text-anchor="middle"><textPath startOffset="21.46611528233685" xlink:href="#id47">November</textPath></text><path d="M 81.78341655067845 89.55222093294921 l -18.438564410811644 -10.57509207550773 a42.25589870923166,42.25589870923166 0 0,0 0.3673050240920058,-0.6278433498461374 l 18.253799712249315 10.89091483770776" fill="#ffe715" stroke="none" /><path d="M 81.96595687620814 89.24020034530311 l -9.557210347498524 -5.7021971108194975 a32.1290305739975,32.1290305739975 0 0,0 0.2874541552968214,-0.47249905032693496 l 9.457640393915485 5.865863934353507" fill="#ff5908" stroke="none" /><path d="M 82.34701348167596 88.62581576622439 l -12.496669302585971 -8.051862431812218 a35.86604292604537,35.86604292604537 0 0,0 0.3388544568059364,-0.516098585183452 l 12.356218210422114 8.265779080973337" fill="#ff8f0d" stroke="none" /><path d="M 82.54541684631803 88.32363383020206 l -24.771229498816762 -16.570888204985366 a50.802821121249124,50.802821121249124 0 0,0 0.49248625977589017,-0.7226628166085244 l 24.482318773372132 16.994829044864307" fill="#aaff21" stroke="none" /><path d="M 82.7489923806493 88.02491185347247 l -17.979459074035283 -12.480755442768755 a42.886758668590275,42.886758668590275 0 0,0 0.42618691960244853,-0.6028111736016142 l 17.761959534628957 12.788393116702157" fill="#fff016" stroke="none" /><path d="M 83.17141714833178 87.43820079747576 l -12.301055705510032 -9.182198709997985 a36.35020340646825,36.35020340646825 0 0,0 0.37860305060676974,-0.49819723524775866 l 12.141176714679155 9.39258072112677" fill="#ff960d" stroke="none" /><path d="M 83.39014120810768 87.1503855733568 l -18.822194005335575 -14.561107271429304 a44.79707612595635,44.79707612595635 0 0,0 0.4770801560424466,-0.6058433499255211 l 18.568759768699156 14.882943015307873" fill="#f5ff19" stroke="none" /><path d="M 83.84228863543731 86.58626213691792 l -23.548843435167694 -19.5496754268608 a51.606173175188786,51.606173175188786 0 0,0 0.5732939276341438,-0.6785991841056369 l 23.208838894046426 19.952133560595556" fill="#a1ff22" stroke="none" /><path d="M 84.07557802195018 86.31012108654704 l -18.03511508992325 -15.504395833742787 a44.78343260499119,44.78343260499119 0 0,0 0.5075629208048187,-0.5802321596024766 l 17.76556030554059 15.812543549548208" fill="#f6ff19" stroke="none" /><path d="M 84.31358615837235 86.03803664274999 l -23.410869191200742 -20.837248150467147 a52.341022746101615,52.341022746101615 0 0,0 0.6048039060000856,-0.6678395788704141 l 23.048721644584614 21.237140516607116" fill="#98ff23" stroke="none" /><path d="M 85.05521093208273 85.24692304244772 l -21.679141962888803 -21.40104141307711 a51.462924511795116,51.462924511795116 0 0,0 0.6277599466006647,-0.6250641458885074 l 21.307546216120826 21.771041409615727" fill="#a2ff22" stroke="none" /><path d="M 85.57189188830299 84.74124197986013 l -21.918965707315444 -23.18087660491836 a52.90288541575702,52.90288541575702 0 0,0 0.6670603325045973,-0.6199598802017247 l 21.51669749101599 23.554741071194734" fill="#91ff23" stroke="none" /><path d="M 87.22198572758235 83.33499621200491 l -11.697340643884235 -15.255596212674833 a40.22396925567779,40.22396925567779 0 0,0 0.5530869444610111,-0.4165736198731651 l 11.433007545664834 15.454686422053852" fill="#ffcc13" stroke="none" /><path d="M 87.51073957382395 83.11751280151077 l -3.8046147851517187 -5.1429274603710935 a27.3972491374054,27.3972491374054 0 0,0 0.3815454204407868,-0.27720897431591834 l 3.71552404835715 5.20765566950368" fill="#ff1101" stroke="none" /><path d="M 89.00827224532344 82.1063720568725 l -32.97518326402967 -53.68088382938249 a84.0,84.0 0 0,0 1.2385517351294033,-0.746213562165523 l 32.046269462682616 54.240544001006626" fill="#4dd2ff" stroke="none" /><line stroke="#e1ed5e" stroke-width="0.3" x1="56.762969772571076" x2="54.21961505331055" y1="26.818313649435495" y2="22.513508569990535" /><path d="M 56.25429882871897 25.957352633546506 a86.0,86.0 0 0,1 42.265352541879196,-11.944610805530505" fill="none" id="id48" stroke="none" /><text fill="#e1ed5e" style="font-size:6.75px; font-family:Arial;" text-anchor="middle"><textPath startOffset="22.20632615414155" xlink:href="#id48">December</textPath></text></svg>